<?xml version="1.0" standalone="no"?>
<!DOCTYPE svg PUBLIC "-//W3C//DTD SVG 20010904//EN" "http://www.w3.org/TR/2001/REC-SVG-20010904/DTD/svg10.dtd">
<svg version="1.0" xmlns="http://www.w3.org/2000/svg" width="1024.000000pt" height="1024.000000pt" viewBox="0 0 1024.000000 1024.000000" preserveAspectRatio="xMidYMid meet">
  <g transform="translate(0.000000,1024.000000) scale(0.100000,-0.100000)" fill="#" stroke="none">
    <path d="M4496 9392 c-68 -251 -77 -292 -89 -397 l-13 -109 -28 49 c-58 101
-158 235 -184 249 -16 8 -73 16 -137 18 -102 5 -118 8 -220 50 -109 44 -215
77 -135 42 19 -9 82 -38 140 -65 94 -43 116 -49 195 -55 141 -9 142 -10 217
-127 103 -161 122 -203 121 -267 -1 -59 -27 -146 -36 -120 -3 8 -11 44 -17 80
-13 72 -61 205 -85 236 -11 13 -9 6 3 -21 49 -100 75 -207 76 -310 l1 -100
-82 -123 c-56 -85 -84 -119 -90 -110 -4 7 -13 123 -20 258 l-11 245 3 -202 c1
-112 0 -203 -4 -203 -4 0 -14 12 -23 28 -63 106 -331 307 -602 453 -119 63
-135 63 -29 0 124 -75 221 -142 330 -229 136 -109 288 -272 254 -272 -5 0 -13
4 -16 10 -3 5 -45 37 -93 71 -48 34 -112 84 -142 113 l-55 51 55 -58 c30 -32
91 -85 136 -117 119 -87 151 -126 160 -196 7 -60 -1 -224 -14 -283 l-7 -33
-57 83 c-31 46 -81 128 -112 182 -31 53 -59 97 -62 97 -10 0 101 -198 160
-285 l61 -90 -5 -80 c-2 -44 -4 -113 -3 -153 1 -62 -1 -73 -14 -67 -14 5 -14
3 -2 -12 8 -10 -17 10 -56 45 -38 35 -100 86 -137 114 -52 38 -68 57 -69 77
-1 14 -3 33 -4 41 -1 8 -3 22 -4 30 0 8 -13 21 -28 27 l-26 13 21 -23 c12 -13
22 -33 22 -44 0 -61 13 -83 74 -127 33 -24 83 -67 110 -95 l50 -51 -54 21
c-41 15 -95 23 -215 30 -176 11 -220 19 -281 54 l-41 24 -6 88 c-6 86 -6 87
27 137 147 224 176 301 145 383 -5 15 -36 55 -68 88 -32 33 -61 71 -65 83 -5
13 -10 21 -13 19 -9 -9 28 -68 77 -122 30 -33 51 -67 55 -88 12 -61 -12 -146
-62 -227 -26 -41 -56 -92 -67 -112 -12 -21 -24 -38 -28 -38 -4 0 -6 47 -5 104
2 104 2 104 -28 133 -22 20 -33 45 -42 87 -7 33 -26 89 -43 124 -28 60 -30 73
-28 157 3 101 -3 115 -89 210 -45 50 -34 29 29 -53 51 -67 57 -93 40 -187 l-7
-40 -32 45 c-17 25 -50 63 -74 85 -41 39 -42 39 -20 7 13 -18 34 -40 47 -49
13 -8 24 -19 24 -24 0 -14 -218 155 -232 180 -9 17 -13 61 -12 140 0 79 -2
103 -7 76 -9 -48 -11 -191 -3 -222 3 -12 53 -61 111 -109 136 -114 199 -184
206 -226 6 -44 2 -46 -31 -16 -15 14 -66 49 -114 77 -86 51 -144 106 -154 149
-7 26 -8 27 -40 5 -22 -14 -34 -15 -82 -5 -32 6 -69 9 -83 6 -23 -5 -30 0 -53
40 -15 25 -29 46 -33 46 -3 0 1 -10 9 -22 8 -13 22 -37 31 -55 15 -28 20 -31
44 -24 17 5 48 3 78 -5 38 -10 57 -11 79 -2 24 10 30 9 38 -7 23 -39 84 -97
140 -132 32 -20 57 -37 56 -38 -2 -1 -37 1 -78 5 -65 5 -79 10 -104 35 -27 27
-30 28 -101 22 -89 -8 -130 4 -151 45 -9 16 -18 28 -21 25 -7 -8 12 -39 37
-62 18 -16 41 -21 123 -25 92 -4 103 -7 111 -26 8 -18 21 -22 90 -27 149 -11
200 -42 226 -137 7 -27 25 -57 46 -77 43 -40 57 -76 49 -125 -7 -39 -14 -44
-43 -29 -10 5 -98 21 -197 35 -151 21 -246 41 -399 81 -15 4 -13 1 6 -10 40
-22 260 -81 417 -111 142 -27 184 -42 200 -72 6 -11 7 -57 4 -109 -5 -84 -4
-93 18 -124 21 -30 21 -32 3 -25 -65 28 -117 46 -120 44 -6 -7 239 -109 294
-123 31 -7 118 -18 193 -24 165 -13 228 -33 296 -97 l48 -45 -40 5 c-49 7
-216 17 -195 12 8 -3 69 -10 135 -17 141 -15 140 -14 306 -180 141 -141 161
-192 118 -297 l-14 -33 -54 71 c-29 38 -58 73 -63 76 -6 4 12 -23 41 -60 77
-101 75 -94 30 -162 -39 -59 -39 -59 -39 -26 0 18 -5 43 -11 54 -7 12 -18 48
-25 80 -13 54 -48 138 -59 138 -2 0 7 -24 20 -52 13 -29 26 -73 30 -98 4 -25
14 -57 21 -72 24 -46 17 -91 -21 -147 -51 -74 -93 -160 -105 -217 -28 -130 52
-257 236 -377 229 -150 384 -274 384 -308 0 -24 -27 -79 -38 -79 -5 0 -34 14
-64 30 -80 43 -152 67 -325 105 -176 39 -238 63 -280 108 -42 44 -51 80 -63
242 -6 90 -19 172 -34 228 -27 99 -42 126 -32 57 29 -184 29 -256 3 -248 -7 3
-26 30 -43 62 -34 63 -47 76 -81 76 -16 0 -29 11 -42 38 -24 44 -27 36 -7 -13
13 -29 20 -35 45 -35 25 0 36 -8 57 -40 15 -22 24 -43 21 -46 -8 -8 -123 45
-140 65 -8 9 -22 40 -32 69 -12 37 -35 72 -78 120 -83 90 -106 124 -134 196
-13 34 -21 48 -18 31 12 -60 64 -152 125 -220 61 -67 109 -150 95 -163 -6 -7
-31 18 -108 108 l-38 45 23 -43 c12 -24 43 -69 68 -100 41 -52 72 -75 217
-167 41 -26 50 -38 65 -85 9 -30 17 -73 17 -96 1 -50 43 -135 83 -169 51 -43
135 -80 282 -125 151 -46 268 -92 274 -108 2 -6 -17 -14 -42 -17 -33 -5 -58
-2 -98 13 -29 11 -156 41 -283 66 -126 26 -259 56 -295 68 -155 50 -250 120
-300 221 -51 105 -108 405 -130 677 -8 105 -19 133 -77 200 -61 69 -95 124
-162 258 -34 67 -63 122 -66 122 -6 0 122 -270 136 -287 16 -19 2 -16 -29 5
-15 10 -63 38 -107 62 -44 24 -88 53 -97 65 -37 44 -78 143 -90 214 -6 41 -14
67 -17 58 -5 -13 -19 -1 -58 51 -29 37 -71 87 -93 112 -23 25 -6 -2 38 -60
118 -157 120 -164 73 -243 l-28 -48 -59 44 c-32 24 -76 62 -96 85 -35 39 -36
43 -31 95 8 75 -1 101 -51 155 -24 26 -60 81 -81 122 -41 83 -78 133 -173 232
l-64 66 12 116 c6 64 8 131 4 149 -7 34 -54 98 -54 74 0 -8 9 -22 21 -33 19
-17 20 -26 15 -147 -3 -70 -8 -132 -11 -137 -9 -14 12 -48 63 -102 l45 -48
-55 19 c-30 10 -74 22 -99 26 -24 4 -54 13 -65 20 -31 20 -63 92 -101 225 -26
89 -32 102 -27 60 4 -30 8 -67 9 -83 1 -15 7 -37 12 -50 6 -12 21 -50 33 -83
27 -76 59 -107 127 -122 29 -6 69 -18 89 -27 l37 -15 -44 -28 -44 -28 -40 29
c-32 23 -48 28 -80 25 -27 -3 -50 2 -70 14 -16 10 -37 18 -46 18 -9 0 -22 7
-29 16 -8 8 -23 20 -34 26 -12 5 -5 -4 14 -20 19 -17 43 -31 52 -32 9 0 29
-11 45 -24 22 -18 33 -21 51 -15 34 13 65 2 102 -36 l33 -34 34 29 c77 68 116
49 180 -88 25 -54 62 -117 83 -142 42 -51 52 -73 43 -96 -4 -12 -11 -6 -27 23
-25 44 -69 71 -231 139 -60 25 -136 59 -167 75 -32 16 -65 29 -75 28 -11 0 -4
-7 17 -16 19 -9 71 -33 115 -53 44 -21 114 -52 155 -70 128 -56 155 -75 179
-130 12 -27 21 -57 21 -67 0 -10 9 -36 20 -58 11 -21 19 -40 17 -41 -1 -1
-114 36 -251 82 -184 62 -263 84 -300 84 -28 0 -112 -16 -186 -35 -156 -40
-174 -42 -217 -15 -46 27 -56 53 -49 119 21 192 22 181 -20 241 -36 50 -39 61
-39 120 0 36 4 76 8 90 6 21 5 20 -9 -5 -11 -19 -18 -52 -18 -92 0 -52 5 -70
32 -113 37 -59 40 -103 17 -190 -8 -30 -15 -71 -15 -91 l0 -36 -52 18 c-60 20
-189 39 -251 38 -26 -1 -5 -6 56 -14 161 -22 237 -49 296 -104 56 -52 95 -57
240 -26 213 46 196 47 451 -39 124 -41 266 -86 315 -99 72 -18 104 -33 160
-74 39 -28 126 -82 195 -121 165 -93 244 -142 238 -147 -2 -3 -28 4 -56 15
-29 11 -117 38 -195 59 -78 22 -151 43 -162 46 -18 6 -18 5 -3 -5 10 -6 90
-35 178 -65 189 -64 246 -92 306 -147 l44 -41 0 -78 c0 -72 -9 -96 -25 -69
-15 25 -96 53 -189 67 -79 11 -126 25 -216 65 -174 76 -252 102 -403 138
l-138 33 -51 56 c-63 69 -98 121 -109 163 l-9 33 4 -37 c5 -40 41 -98 101
-162 20 -21 34 -40 32 -42 -2 -3 -37 3 -78 12 -52 12 -124 18 -239 18 -190 2
-181 -2 -317 112 -82 68 -95 77 -238 169 -94 61 -203 118 -245 129 -14 4 5 -8
41 -26 89 -45 314 -209 429 -313 129 -117 145 -124 310 -129 149 -5 198 -15
475 -97 127 -38 214 -72 345 -135 145 -70 192 -87 272 -102 109 -21 136 -35
178 -93 41 -57 65 -127 90 -260 34 -184 70 -275 137 -350 20 -22 34 -41 32
-43 -4 -4 -159 10 -222 20 -31 5 -57 23 -126 89 -76 71 -96 85 -147 99 -123
33 -135 49 -111 140 21 80 17 93 -60 180 -45 50 -62 79 -72 118 -8 29 -20 64
-28 78 -15 27 -15 30 12 -79 13 -51 29 -80 76 -139 32 -40 59 -78 59 -84 0
-18 -34 -118 -41 -118 -16 0 -134 114 -170 164 -23 32 -43 55 -46 52 -3 -2 7
-17 21 -33 14 -15 26 -31 26 -34 0 -3 -53 20 -117 53 -95 47 -131 72 -185 125
-38 37 -68 63 -68 57 0 -18 136 -149 176 -169 102 -50 184 -105 271 -183 52
-46 92 -86 89 -89 -12 -13 -338 76 -463 127 -103 41 -177 90 -198 130 -7 14
-13 60 -12 106 l0 81 -59 97 c-33 54 -71 112 -86 129 -15 18 -3 -5 26 -51 76
-117 106 -197 104 -275 -2 -68 10 -99 51 -135 14 -13 19 -22 11 -19 -8 2 -42
13 -74 23 l-59 19 -40 85 c-21 47 -44 96 -51 109 -18 39 -75 91 -120 111 -23
9 -86 28 -141 40 -187 43 -231 74 -298 213 -24 51 -54 103 -65 117 -13 16 -7
-2 16 -50 20 -42 45 -97 55 -122 38 -96 109 -144 295 -198 62 -18 114 -36 117
-40 2 -3 -33 -4 -79 -2 -98 5 -329 -11 -540 -38 -83 -11 -191 -20 -241 -21
-49 0 -110 -4 -135 -8 -71 -13 275 -13 426 0 71 6 144 9 162 7 32 -3 31 -4
-56 -68 -87 -64 -102 -70 -262 -108 l-45 -11 50 6 c28 3 70 12 95 19 24 7 45
12 47 10 2 -2 -31 -31 -72 -66 -41 -34 -75 -65 -75 -67 0 -3 17 9 38 26 20 18
109 86 196 152 l159 121 156 -4 c109 -3 167 -9 191 -20 46 -20 96 -78 109
-125 12 -44 35 -80 68 -106 33 -27 28 -37 -18 -37 -23 0 -98 -13 -168 -29
-134 -32 -173 -36 -511 -52 -352 -17 -328 -24 75 -23 299 1 393 4 443 16 34 8
62 11 62 8 0 -14 -91 -82 -123 -91 -17 -6 -72 -14 -122 -19 l-90 -9 90 4 c50
2 101 7 115 11 23 6 21 3 -15 -37 -22 -23 -3 -9 43 32 144 129 133 123 221
122 110 -2 214 -25 456 -103 116 -37 246 -75 290 -85 193 -42 244 -67 319
-159 67 -82 139 -101 492 -131 115 -9 215 -24 275 -39 52 -14 132 -32 179 -41
194 -37 187 -34 199 -61 15 -33 -6 -75 -51 -102 -41 -25 -182 -68 -268 -81
-93 -15 -227 -13 -293 4 -77 20 -127 46 -216 112 -40 30 -97 66 -126 79 -63
29 -197 59 -349 79 -116 16 -171 36 -221 82 -17 15 -35 28 -40 28 -10 0 -166
56 -220 79 -16 7 -41 10 -54 6 -21 -5 -17 -8 26 -17 82 -19 234 -82 292 -122
48 -32 51 -36 30 -40 -13 -2 -67 2 -120 9 -53 7 -111 10 -129 7 -21 -5 -88 6
-193 29 -89 19 -208 39 -263 44 -125 11 -141 15 -233 57 -108 49 -130 50 -239
14 -78 -26 -107 -31 -193 -31 -110 0 -128 6 -214 71 -87 65 -112 72 -249 64
l-121 -7 -45 30 c-38 25 -52 44 -96 133 -28 57 -56 115 -62 129 -11 24 -11 24
-6 -5 4 -16 23 -68 44 -115 21 -47 34 -86 30 -88 -5 -2 -22 4 -39 12 -54 29
-47 16 9 -15 30 -16 69 -43 86 -60 46 -45 108 -60 200 -49 97 10 145 -3 221
-61 30 -24 51 -45 47 -46 -521 -176 -616 -215 -314 -131 334 93 315 89 450 87
69 -1 141 -3 160 -3 19 0 72 11 118 24 l82 24 106 -52 c59 -28 101 -54 93 -56
-126 -40 -150 -49 -147 -52 2 -2 40 8 83 22 69 22 91 25 160 20 89 -7 275 -45
275 -57 0 -8 -131 -65 -200 -86 -55 -17 -156 -18 -275 -3 -91 11 -97 11 -399
-21 -54 -6 -129 -21 -167 -34 -65 -22 -224 -120 -294 -181 -38 -33 -19 -23 70
36 171 115 243 136 501 148 156 8 196 7 314 -11 179 -26 240 -18 433 59 l142
56 125 -15 c69 -9 172 -19 230 -22 133 -8 322 -40 423 -71 61 -20 98 -41 176
-99 103 -78 189 -123 281 -146 88 -22 271 -16 451 14 167 29 225 34 199 17 -8
-5 -11 -10 -6 -10 5 0 3 -7 -4 -15 -7 -8 -9 -15 -5 -15 4 0 2 -7 -5 -15 -7 -8
-9 -15 -5 -15 4 0 2 -6 -4 -13 -6 -8 -8 -17 -4 -20 3 -4 0 -13 -7 -22 -7 -8
-9 -15 -5 -15 4 0 2 -7 -5 -15 -7 -8 -9 -22 -6 -31 3 -9 3 -21 -1 -27 -7 -11
-16 -116 -14 -152 1 -11 3 -45 4 -75 1 -30 5 -60 10 -67 4 -6 4 -18 1 -26 -3
-8 -1 -18 5 -21 6 -4 8 -13 4 -21 -3 -8 0 -15 7 -15 7 0 10 -7 7 -15 -4 -8 -2
-17 4 -20 5 -4 7 -11 4 -16 -4 -5 -1 -9 5 -9 7 0 10 -6 7 -14 -3 -7 -1 -18 4
-23 5 -5 -107 -9 -279 -8 -367 0 -434 -12 -702 -127 -149 -65 -191 -73 -324
-62 -61 5 -199 9 -306 10 -189 0 -201 2 -395 43 -110 23 -249 46 -310 50 -94
7 -126 14 -218 50 -121 46 -155 49 -229 21 -29 -11 -68 -20 -85 -20 -18 0 -62
-10 -97 -21 l-65 -21 -123 31 c-68 18 -131 32 -141 32 -9 0 -15 4 -12 9 3 4
-3 6 -12 4 -10 -3 -49 4 -88 15 -38 11 -71 18 -73 16 -4 -4 238 -81 346 -111
l63 -17 -20 -20 -20 -21 -21 27 c-25 31 -73 43 -121 28 l-34 -11 38 6 c52 7
101 -11 115 -42 l12 -25 37 25 c20 14 41 22 46 19 21 -13 83 -3 203 33 68 19
130 34 138 32 28 -6 -144 -131 -214 -156 -50 -18 -56 -22 -25 -17 55 9 109 39
193 106 40 33 78 59 83 59 6 0 58 -21 116 -46 97 -42 117 -47 216 -55 60 -4
111 -10 114 -13 3 -3 -7 -10 -23 -16 -16 -6 -75 -29 -132 -51 -155 -60 -175
-62 -554 -54 -383 8 -401 5 -504 -65 -52 -35 -247 -211 -218 -196 6 3 56 42
110 86 163 133 212 149 411 135 l108 -8 -45 -13 -45 -13 55 7 c66 8 205 7 298
-3 l67 -7 -30 -24 c-35 -28 -106 -54 -147 -54 -15 0 -28 -4 -28 -9 0 -11 97 7
135 26 16 8 40 25 53 37 20 18 40 22 135 27 97 6 131 13 250 52 150 50 247 72
278 62 21 -7 21 -7 1 -28 -20 -22 -62 -100 -62 -114 0 -4 14 17 31 47 16 30
38 63 47 73 17 17 20 17 68 -5 46 -22 63 -23 264 -24 118 -1 226 -6 240 -11
22 -9 17 -12 -50 -27 -41 -8 -113 -20 -160 -26 -115 -15 -177 -47 -268 -137
-81 -81 -81 -81 -194 -57 -115 24 -277 44 -353 42 -38 0 -56 -3 -40 -5 103
-12 197 -26 240 -36 l50 -12 -65 -6 c-62 -5 -60 -6 31 -7 53 -1 99 -5 102 -9
4 -3 -24 -14 -62 -24 -70 -18 -225 -78 -218 -85 2 -2 34 9 73 25 107 46 223
73 284 67 29 -3 55 -8 58 -10 2 -3 -13 -33 -34 -68 -23 -38 -86 -112 -163
-188 -129 -127 -115 -122 43 15 48 43 102 97 119 121 17 24 32 42 34 40 8 -8
-19 -91 -48 -148 -16 -32 -27 -58 -24 -58 11 0 64 118 80 180 26 94 32 103 63
95 50 -12 276 -6 362 11 146 28 141 28 206 -4 l62 -29 -32 -17 c-17 -9 -53
-37 -81 -62 l-50 -45 68 51 c87 64 111 76 170 83 76 10 206 72 341 162 68 45
146 90 172 99 32 11 122 22 254 32 206 15 426 43 533 68 57 13 57 13 51 -8 -7
-25 -19 -36 -105 -86 -82 -48 -158 -64 -399 -85 -457 -38 -505 -57 -772 -300
-93 -84 -173 -129 -406 -225 -189 -78 -312 -114 -442 -130 -156 -19 -180 -16
-246 33 -33 24 -99 81 -149 127 l-90 83 100 -99 c55 -55 116 -112 135 -127
l35 -28 -75 6 c-152 13 -356 84 -374 130 -10 27 -88 74 -165 100 -77 25 -80
27 -144 109 -36 45 -73 89 -83 97 -9 8 15 -26 54 -75 40 -49 70 -91 68 -93 -6
-6 -93 42 -156 87 -50 35 -205 99 -215 88 -3 -2 27 -14 66 -27 39 -12 69 -25
66 -27 -2 -3 -17 0 -33 6 -15 6 -73 13 -129 15 l-100 4 95 -14 c118 -17 165
-34 255 -89 85 -53 157 -89 210 -106 72 -23 129 -58 180 -109 27 -28 47 -51
45 -51 -13 0 -159 31 -190 40 -19 5 -52 10 -72 10 -21 0 -72 12 -114 26 -62
22 -83 25 -116 18 -38 -8 -43 -7 -74 24 -17 17 -38 32 -46 32 -7 -1 -1 -7 14
-16 25 -13 55 -51 46 -58 -2 -2 -59 -13 -128 -26 -69 -12 -138 -29 -155 -36
-16 -8 -21 -12 -11 -9 10 3 67 13 125 21 107 16 282 14 361 -4 l34 -8 -58 -41
c-32 -23 -79 -50 -105 -59 -25 -9 -80 -30 -121 -47 -41 -16 -104 -33 -140 -37
l-65 -7 61 -2 c44 -1 84 7 147 29 48 17 92 30 98 30 7 0 -10 -19 -37 -42 -117
-101 -143 -136 -41 -53 138 111 293 215 320 215 12 -1 110 -23 217 -49 l194
-48 -64 -21 c-65 -21 -99 -28 -175 -37 -58 -7 -145 -26 -145 -32 0 -2 15 -2
33 1 24 5 20 1 -18 -15 -69 -28 -147 -107 -145 -146 1 -4 10 9 20 29 11 21 35
49 53 64 46 36 162 79 251 93 41 6 109 22 149 36 l75 26 103 -15 c310 -46 535
-24 808 78 52 20 97 34 99 32 2 -2 -9 -30 -24 -63 -35 -73 -105 -149 -152
-164 -21 -6 -132 -47 -249 -90 -116 -44 -259 -91 -318 -105 l-106 -25 -41 36
c-75 63 -228 126 -303 124 -18 -1 -8 -5 25 -10 81 -13 310 -133 290 -152 -3
-3 -73 -10 -157 -16 -189 -15 -237 -27 -393 -101 -148 -69 -136 -65 -274 -85
-60 -8 -112 -18 -115 -21 -3 -3 14 -3 39 0 25 3 79 8 120 11 88 7 165 27 232
61 121 61 188 75 412 85 138 6 240 15 294 27 45 10 82 18 82 16 0 -1 -42 -29
-92 -62 -111 -71 -186 -110 -333 -170 -109 -45 -111 -45 -260 -52 -131 -5
-163 -10 -253 -39 -57 -18 -102 -35 -100 -36 2 -2 55 9 118 26 107 27 123 29
240 23 122 -6 128 -5 220 26 52 17 100 33 105 36 9 4 11 -39 6 -155 -1 -13
-17 -39 -38 -59 -21 -19 -28 -30 -17 -24 12 6 34 25 48 43 22 25 26 40 26 91
0 93 17 118 113 164 45 21 150 85 234 141 150 100 155 103 329 159 97 32 194
69 215 84 54 36 123 130 160 220 17 41 38 83 46 92 8 9 47 33 86 54 86 44 114
64 232 165 192 163 228 175 620 204 116 9 253 25 305 36 174 36 217 42 283 35
68 -8 105 -25 93 -44 -4 -7 -26 -23 -50 -37 -43 -25 -56 -27 -292 -54 -50 -6
-117 -20 -150 -32 -54 -19 -75 -20 -249 -15 -107 3 -177 1 -160 -3 17 -5 57
-9 91 -10 34 0 96 -4 138 -8 l78 -6 -48 -30 c-137 -85 -226 -116 -391 -136
-92 -11 -218 -44 -227 -60 -3 -4 20 1 50 11 31 10 111 23 187 28 158 13 240
35 366 101 158 83 212 98 388 110 149 10 252 33 268 60 4 5 11 9 18 9 6 0 -6
-18 -28 -40 -61 -62 -303 -178 -551 -264 -116 -40 -240 -89 -275 -108 -35 -20
-120 -82 -189 -137 -168 -136 -182 -142 -322 -144 -62 -1 -131 1 -153 5 -22 4
-31 4 -21 1 15 -4 16 -7 5 -15 -9 -6 34 -8 124 -6 l137 4 -46 -24 c-132 -67
-405 -136 -599 -151 l-110 -8 114 -2 c125 -1 273 18 411 53 50 12 90 21 90 19
0 -10 -95 -47 -187 -74 -159 -46 -226 -86 -266 -161 l-18 -33 23 30 c35 45 78
83 118 102 37 18 233 74 238 68 7 -7 -84 -54 -125 -65 l-43 -11 2 -72 2 -72 3
68 c3 42 9 69 16 71 59 17 114 43 141 67 57 50 139 100 201 124 105 39 177 80
305 175 69 51 152 106 184 122 63 32 137 60 142 55 2 -2 -25 -22 -60 -45 -158
-104 -344 -273 -486 -443 -52 -62 -126 -148 -165 -190 -38 -42 -87 -97 -108
-123 -89 -107 -133 -122 -395 -137 -138 -7 -205 -16 -280 -35 -135 -36 -197
-38 -236 -11 -69 47 -116 92 -116 109 0 13 -7 18 -27 17 -21 -1 -22 -3 -8 -6
11 -2 25 -14 30 -26 6 -12 36 -42 67 -67 l57 -45 -237 -6 c-203 -5 -255 -10
-362 -32 -188 -40 -254 -65 -86 -32 185 35 360 40 615 18 l74 -6 -150 -37
c-87 -22 -182 -53 -225 -73 -66 -32 -89 -52 -189 -159 -119 -127 -106 -133 16
-8 115 117 176 150 354 190 107 24 437 72 464 68 16 -2 9 -13 -39 -61 -33 -32
-77 -69 -100 -83 -53 -31 -180 -64 -267 -68 -86 -4 -100 -16 -19 -16 60 0 231
38 275 61 12 7 37 24 56 38 l35 26 -20 -35 c-31 -56 -126 -148 -159 -154 -16
-4 -51 -13 -76 -21 -58 -19 -135 -19 -219 0 -91 20 -109 16 -25 -5 39 -10 89
-19 113 -19 23 -1 42 -4 42 -8 0 -5 -33 -25 -73 -45 -84 -44 -155 -100 -223
-178 l-49 -55 69 64 c58 53 164 131 179 131 2 0 -8 -24 -22 -52 -23 -46 -26
-65 -26 -153 l0 -101 51 -89 c28 -50 54 -97 57 -105 4 -11 6 -11 6 -2 1 8 -19
52 -44 99 -24 47 -47 104 -50 128 -8 47 6 154 26 200 12 30 12 30 19 -27 5
-37 25 -95 59 -165 28 -59 51 -103 51 -96 0 6 -18 49 -40 95 -80 169 -79 224
7 295 50 40 70 48 169 73 61 15 103 48 159 122 28 37 52 63 54 57 5 -16 -18
-216 -34 -293 -8 -38 -13 -72 -10 -74 2 -2 9 23 16 57 13 60 29 82 29 39 0
-24 28 -130 29 -113 1 6 -6 42 -14 80 -12 54 -14 103 -9 213 l7 142 43 40 c24
22 63 49 86 59 38 17 187 54 369 90 30 7 72 23 92 36 20 14 40 25 45 25 18 0
30 -112 14 -136 -4 -7 -25 -19 -47 -28 -77 -32 -115 -68 -193 -183 -161 -238
-188 -298 -202 -454 -13 -146 -25 -172 -213 -457 -66 -100 -118 -184 -115
-187 3 -3 25 5 49 19 24 13 70 34 101 46 32 13 56 25 54 27 -2 2 -38 -10 -80
-26 -42 -16 -76 -27 -76 -24 0 3 56 79 124 169 154 205 192 277 211 402 7 51
22 116 32 145 l17 52 7 -75 c7 -90 33 -151 83 -203 32 -32 36 -42 31 -67 -10
-45 12 -95 59 -137 57 -50 87 -112 94 -190 4 -53 1 -70 -22 -117 -31 -63 -91
-122 -170 -166 -80 -46 -69 -48 16 -3 80 42 155 111 183 169 26 54 31 133 12
189 l-16 46 27 -20 c80 -58 134 -141 188 -291 13 -36 24 -56 24 -45 0 11 -16
58 -35 105 -19 46 -33 85 -32 87 6 6 151 -181 283 -364 80 -112 147 -203 149
-203 7 0 -234 381 -286 453 l-49 67 32 1 33 1 -38 8 c-28 5 -47 18 -70 46 -59
74 -182 195 -239 237 -64 47 -78 70 -78 128 0 48 -11 72 -55 119 -86 91 -84
300 3 416 20 27 45 61 55 74 10 14 16 18 14 10 -3 -8 -10 -41 -17 -72 -12 -53
-12 -60 6 -79 10 -11 28 -25 39 -31 11 -5 5 4 -14 20 l-35 30 19 83 c22 96 46
126 123 155 105 39 127 75 120 196 -3 43 -3 78 0 78 2 0 15 -9 29 -19 13 -11
59 -28 101 -37 99 -21 123 -34 160 -85 46 -62 67 -73 157 -79 l80 -5 3 -43 c2
-33 0 -42 -9 -36 -9 5 -10 1 -6 -16 3 -13 0 -53 -8 -89 -7 -36 -16 -95 -19
-131 l-6 -65 18 77 c9 42 20 79 23 83 4 3 22 -41 40 -99 18 -58 35 -103 37
-102 2 2 -4 28 -12 57 -9 29 -16 55 -16 58 0 3 23 -20 51 -50 l50 -54 -55 67
c-75 92 -91 152 -65 260 22 94 -8 128 -112 128 -64 0 -79 8 -123 69 -40 57
-84 83 -170 102 -60 13 -111 41 -130 71 -9 14 4 32 74 105 47 49 127 136 178
195 130 148 323 321 496 443 l69 49 -37 -51 c-20 -28 -47 -81 -61 -118 -32
-88 -105 -212 -115 -195 -5 8 -10 1 -15 -21 -4 -19 -12 -42 -17 -53 -14 -26
-21 -136 -9 -136 6 0 12 -28 14 -63 l3 -62 2 67 c1 41 -2 68 -9 70 -8 3 -7 22
1 68 10 48 26 86 63 143 27 42 51 76 52 75 1 -2 -2 -39 -7 -83 -13 -107 -5
-195 21 -245 11 -22 44 -71 73 -109 38 -49 59 -89 72 -137 16 -55 28 -76 63
-109 24 -22 82 -78 128 -125 109 -109 109 -114 -5 -198 -47 -34 -105 -79 -129
-100 -44 -37 -45 -41 -52 -111 -5 -64 -10 -76 -40 -107 -19 -20 -63 -52 -99
-71 -167 -92 -274 -173 -301 -227 -8 -15 -3 -12 17 9 60 62 126 108 236 162
62 30 127 66 145 79 l32 24 -6 -37 c-3 -21 -10 -43 -15 -50 -6 -8 -1 -19 17
-35 41 -35 56 -72 64 -161 8 -81 8 -82 10 -21 1 72 -21 154 -49 179 -27 24
-25 64 5 150 14 39 25 88 25 111 0 47 10 58 110 124 36 24 84 59 108 78 24 19
45 32 48 30 6 -7 -74 -125 -95 -141 -33 -23 -73 -122 -76 -189 l-4 -63 8 55
c4 30 17 75 28 100 l20 45 5 -166 c6 -179 14 -214 37 -176 13 19 12 21 -1 10
-13 -11 -16 -3 -21 70 -4 45 -7 126 -7 180 l0 98 46 56 c25 31 55 74 66 96
l20 40 19 -29 c75 -110 76 -149 10 -294 l-49 -107 9 -114 c17 -191 15 -219
-10 -269 -34 -65 -183 -209 -262 -253 -101 -57 -112 -57 -199 0 -128 83 -137
83 -19 0 87 -61 113 -66 184 -33 62 28 66 17 5 -14 -43 -22 -87 -25 -140 -10
-42 12 -89 -1 -116 -33 -19 -22 -19 -22 1 -5 40 33 73 39 127 23 27 -8 63 -12
80 -8 l30 6 -16 -31 c-36 -69 -13 -134 63 -181 109 -66 92 -97 -110 -199 -166
-85 -274 -149 -308 -186 -32 -34 -25 -38 24 -15 22 11 29 16 15 13 l-25 -5 25
20 c26 22 267 143 310 156 l25 7 -25 -29 c-14 -16 -8 -12 13 9 21 21 44 38 51
38 7 0 30 11 50 25 20 14 39 25 42 25 4 0 4 -38 3 -84 -2 -46 -2 -82 1 -79 3
2 7 54 10 113 7 141 16 152 73 89 23 -26 66 -87 96 -135 77 -127 176 -274 206
-309 14 -16 4 4 -23 45 -27 41 -80 131 -117 200 -102 188 -126 221 -201 280
-96 75 -154 131 -154 151 0 9 68 82 151 162 89 85 148 136 145 124 -55 -205
-49 -245 68 -468 47 -90 86 -161 86 -157 0 4 -37 81 -82 172 -77 157 -81 169
-86 246 -3 55 -1 80 7 80 6 0 11 -4 11 -10 0 -5 20 -32 45 -60 44 -49 85 -118
85 -141 0 -15 77 -179 84 -179 4 0 -7 26 -22 57 -16 32 -37 83 -47 113 -25 77
-39 103 -90 160 -25 28 -48 62 -51 77 -8 32 12 143 36 198 10 22 21 51 25 63
6 22 9 20 43 -29 19 -29 66 -117 103 -196 38 -79 70 -143 73 -143 11 0 -119
301 -164 381 -46 79 -54 102 -65 180 -13 94 -7 107 27 64 12 -15 30 -25 46
-25 38 0 44 -6 101 -90 80 -119 151 -214 151 -203 0 6 -26 46 -57 89 -91 127
-116 165 -110 171 3 3 28 -7 56 -23 42 -22 61 -43 110 -118 137 -214 194 -363
195 -518 1 -53 4 -70 9 -55 11 27 1 145 -17 215 -8 28 -12 52 -9 52 11 0 72
-150 82 -202 10 -57 6 -118 -11 -150 -8 -16 14 -78 28 -78 2 0 -2 12 -9 27
-12 22 -12 33 0 72 20 64 10 148 -38 316 -60 209 -100 284 -203 382 -61 58
-108 92 -168 122 -46 23 -98 52 -116 64 -31 21 -33 24 -28 72 2 28 16 86 31
130 38 115 28 191 -41 297 -10 15 -16 30 -13 33 3 3 33 8 66 11 107 11 159
-34 198 -171 22 -74 45 -120 86 -165 30 -33 27 -28 -21 45 -19 28 -33 70 -59
171 -13 50 -46 100 -84 128 -25 18 -43 21 -128 21 l-100 0 -58 85 c-42 60 -76
97 -116 125 -68 47 -78 61 -99 143 -9 35 -30 84 -47 108 -17 25 -29 46 -27 48
1 1 35 7 75 14 71 12 103 9 103 -9 0 -16 80 -97 118 -121 29 -18 52 -22 123
-23 102 -2 145 -19 234 -96 53 -45 52 -43 -12 19 -83 80 -132 102 -228 102
-53 0 -69 5 -110 32 -27 18 -61 53 -78 79 -37 60 -61 69 -156 55 -129 -18
-153 16 -133 188 16 145 18 148 60 100 26 -29 29 -31 14 -8 -12 17 -28 36 -36
43 -13 11 -12 18 2 59 11 34 39 70 104 137 72 73 84 82 66 50 -29 -51 -29
-129 1 -204 12 -30 26 -70 31 -90 9 -35 9 -34 5 9 l-5 45 25 -30 c14 -16 39
-54 56 -82 17 -29 33 -53 36 -53 7 0 -56 112 -77 135 -31 33 -73 126 -78 170
-6 57 16 100 93 183 42 44 98 89 166 131 57 35 113 70 124 77 20 13 21 12 20
-94 -1 -59 -4 -127 -8 -152 -3 -25 1 -7 11 39 l17 84 47 -139 c25 -76 49 -156
53 -176 3 -20 -2 -84 -10 -143 -22 -146 -14 -152 14 -11 28 134 25 192 -12
309 l-25 79 21 -7 c12 -3 72 -10 134 -15 100 -7 120 -12 198 -49 48 -23 91
-41 94 -41 3 0 -25 20 -64 45 -89 57 -152 81 -240 90 -84 9 -119 25 -145 68
-39 64 -14 185 49 235 21 17 55 53 76 80 37 49 41 51 106 62 59 10 76 9 121
-6 114 -37 170 -73 257 -166 46 -49 132 -125 191 -169 97 -72 109 -84 120
-124 7 -24 11 -48 9 -53 -2 -5 -50 -53 -106 -107 l-103 -97 -117 -35 c-211
-62 -256 -100 -259 -216 -1 -38 2 -63 6 -57 5 7 18 -20 34 -67 24 -72 25 -85
15 -134 -6 -30 -31 -94 -54 -144 -50 -105 -96 -217 -92 -222 2 -2 17 27 32 64
15 38 46 104 68 148 22 44 45 98 52 120 l13 40 1 -55 c2 -95 20 -189 46 -240
14 -27 25 -64 25 -82 0 -29 -22 -119 -44 -183 -5 -12 -2 -10 7 5 24 40 57 150
57 188 0 20 -10 56 -22 81 -20 39 -23 64 -25 166 l-2 120 20 -25 c66 -86 121
-173 104 -166 -10 3 2 -15 27 -41 24 -27 53 -61 62 -75 18 -27 18 -28 -17 -60
-39 -37 -58 -90 -56 -158 1 -38 3 -35 10 23 10 91 46 146 95 147 16 0 27 -12
42 -48 28 -64 40 -148 47 -327 5 -140 22 -257 40 -273 5 -4 5 2 1 13 -14 36
-22 178 -18 308 4 111 6 126 17 109 18 -25 39 -79 70 -185 15 -49 29 -87 31
-84 9 9 -55 205 -87 268 -17 35 -38 90 -45 122 -18 73 -41 118 -96 187 -25 30
-55 72 -67 92 -22 36 -20 35 106 -47 162 -105 181 -121 198 -170 8 -22 14 -32
15 -22 1 52 -33 88 -167 179 -200 135 -292 229 -339 345 l-15 38 43 -50 c23
-27 74 -81 112 -120 49 -49 55 -54 20 -15 -128 143 -187 224 -200 274 -5 21
-3 25 8 21 8 -3 46 6 83 20 38 14 72 22 76 18 3 -5 12 -26 19 -48 17 -53 53
-124 79 -155 12 -14 5 2 -14 35 -20 33 -43 86 -52 119 -9 32 -23 61 -31 63 -8
3 -37 -4 -66 -16 -60 -25 -116 -28 -116 -7 0 39 118 94 272 125 60 13 133 55
170 99 13 15 48 47 78 72 30 24 74 62 97 84 l43 40 36 -34 c20 -19 45 -54 56
-78 18 -40 18 -46 3 -97 -12 -44 -23 -60 -60 -86 -25 -18 -45 -34 -45 -36 0
-7 39 17 45 27 3 6 10 10 16 10 19 0 -108 -181 -141 -201 -18 -11 -41 -30 -51
-42 -21 -25 -61 -125 -57 -139 2 -5 12 17 23 48 18 52 87 145 100 133 2 -3
-10 -34 -27 -69 -25 -52 -32 -82 -36 -146 -7 -124 17 -168 169 -314 66 -64
128 -128 138 -144 19 -29 19 -29 -5 -65 -41 -63 -64 -178 -63 -315 l2 -121 8
125 c11 171 41 284 82 319 13 10 18 5 31 -31 30 -78 27 -105 -19 -243 -29 -85
-46 -154 -49 -200 l-5 -70 12 75 c14 84 80 276 85 245 1 -11 -4 -105 -12 -208
l-14 -188 -44 -92 c-25 -51 -52 -100 -61 -108 -8 -9 -26 -38 -38 -64 -16 -34
-32 -51 -55 -61 -45 -19 -296 -74 -337 -74 -56 0 -131 28 -162 60 -16 16 -32
30 -37 30 -22 0 77 -74 114 -85 l43 -14 -57 0 c-48 -1 -59 3 -72 21 -15 21
-16 21 -37 2 -27 -24 -58 -85 -76 -149 -9 -31 -16 -112 -18 -210 -4 -158 -4
-159 6 -50 16 193 36 278 84 352 14 21 16 21 46 6 25 -13 51 -15 128 -10 82 5
240 33 305 53 24 8 -92 -124 -215 -246 -48 -47 -94 -98 -104 -115 l-17 -30 23
30 c13 17 41 46 64 65 22 19 67 64 100 99 166 177 194 205 199 200 3 -3 -25
-102 -63 -221 -64 -199 -96 -277 -152 -368 -11 -19 -13 -26 -4 -15 44 52 97
162 135 278 23 71 43 127 44 125 1 -2 -1 -77 -5 -168 -7 -161 -16 -226 -58
-420 -11 -52 -20 -111 -20 -130 1 -32 2 -30 9 12 5 26 22 96 38 155 36 127 60
251 70 357 l7 76 72 -109 c130 -195 138 -201 293 -201 92 0 108 -3 193 -36
100 -40 209 -75 214 -70 2 2 -25 13 -59 26 -35 12 -101 41 -148 62 -75 35 -98
41 -192 48 -59 5 -117 11 -128 15 -25 8 -150 192 -192 282 -33 69 -34 116 -4
200 l14 38 7 -40 c17 -99 75 -275 90 -275 2 0 -10 36 -26 81 -35 96 -63 248
-54 292 4 18 21 55 38 82 17 28 52 85 79 129 47 77 48 78 58 52 5 -15 10 -66
11 -114 0 -48 7 -154 14 -237 l14 -150 -4 210 c-5 206 -4 209 14 180 69 -113
333 -306 611 -447 144 -73 167 -75 37 -4 -124 69 -257 159 -373 252 -94 76
-204 186 -225 226 -12 21 -11 22 8 8 11 -8 60 -43 109 -76 49 -34 114 -83 144
-110 l55 -48 -50 53 c-27 28 -75 68 -105 89 -30 20 -85 60 -121 89 -60 47 -68
57 -79 104 -13 54 -10 305 5 328 10 17 86 -89 190 -264 83 -140 124 -204 95
-145 -38 74 -177 310 -225 380 -45 67 -54 86 -48 108 4 15 7 79 7 143 1 99 3
116 16 111 13 -5 13 -4 0 14 -8 10 16 -10 54 -45 68 -62 175 -146 197 -153 5
-2 13 -24 16 -48 6 -43 5 -44 -13 -30 -14 10 -13 7 4 -11 13 -15 22 -40 23
-60 1 -32 2 -33 8 -7 l6 28 30 -20 c17 -11 41 -20 55 -20 15 0 32 -6 39 -13
10 -10 11 -9 6 6 -5 11 -18 17 -37 17 -40 0 -97 36 -102 63 -3 12 -7 40 -10
62 -3 22 -10 41 -16 43 -18 6 -124 88 -175 137 -27 25 -41 43 -30 39 11 -4 38
-13 60 -21 25 -9 106 -18 210 -24 94 -4 184 -12 201 -17 42 -13 88 -38 103
-56 14 -17 20 -123 23 -416 2 -147 4 -172 8 -102 l5 93 26 -28 c15 -16 31 -51
38 -82 6 -30 27 -90 47 -133 33 -73 35 -83 28 -146 -7 -77 3 -106 60 -170 19
-20 43 -53 55 -72 11 -19 21 -31 21 -27 0 15 -22 49 -71 110 -54 68 -62 95
-51 182 l7 60 20 -31 c22 -34 145 -169 145 -159 0 4 -28 36 -62 73 -35 36 -49
56 -33 44 17 -12 71 -53 122 -90 57 -41 97 -78 105 -97 8 -19 13 -70 12 -140
0 -77 2 -98 7 -70 15 78 10 208 -9 237 -9 14 -71 71 -137 126 -127 105 -168
154 -179 212 l-6 34 32 -31 c18 -17 56 -43 83 -58 112 -64 156 -98 182 -144
15 -25 28 -48 30 -50 1 -2 10 2 19 10 12 10 45 14 109 14 l92 0 29 -48 c16
-27 37 -56 47 -65 10 -9 -3 15 -28 52 -25 37 -45 71 -45 76 0 5 -13 3 -29 -3
-22 -8 -43 -7 -83 2 -44 11 -59 11 -78 1 -21 -11 -26 -10 -39 11 -35 52 -72
86 -135 123 -36 21 -66 39 -66 40 0 1 35 0 78 -2 69 -3 79 -6 99 -30 22 -26
25 -27 119 -24 103 3 136 -7 149 -48 3 -11 10 -20 15 -20 14 0 -22 56 -45 71
-13 8 -51 12 -112 11 -72 -2 -95 1 -107 14 -9 8 -16 19 -16 23 0 5 -37 11 -83
14 -152 12 -201 42 -227 137 -8 30 -25 56 -53 81 -37 35 -41 43 -45 98 -5 65
-2 68 44 51 15 -6 95 -20 178 -31 163 -21 322 -51 400 -74 81 -25 64 -9 -21
19 -100 33 -256 70 -408 96 -66 12 -133 29 -150 39 l-30 17 0 105 c0 94 -3
108 -25 139 -21 30 -22 33 -4 26 67 -28 117 -46 120 -44 6 7 -242 107 -291
118 -26 6 -113 15 -194 20 -166 11 -212 23 -288 81 -50 37 -71 68 -38 56 8 -4
58 -9 113 -13 112 -8 147 3 198 59 l29 31 -39 -33 c-57 -49 -79 -54 -186 -45
-52 4 -109 8 -127 10 -39 2 -83 37 -220 168 -120 116 -149 164 -139 232 3 25
12 56 19 71 l14 26 31 -44 c17 -24 47 -62 67 -84 20 -22 6 0 -30 48 l-66 88
21 37 c12 20 30 48 41 62 l20 25 -2 -30 c-2 -16 4 -43 13 -60 9 -16 21 -55 27
-85 11 -49 54 -140 67 -140 3 0 -6 19 -20 43 -14 23 -32 72 -39 107 -7 36 -19
75 -25 87 -23 43 -14 93 27 157 71 109 95 172 95 251 0 137 -62 208 -336 390
-199 132 -298 215 -298 249 0 12 8 33 17 46 9 14 17 26 18 27 1 2 27 -11 57
-27 82 -44 151 -66 342 -106 190 -40 228 -53 269 -92 48 -45 57 -76 73 -235 9
-94 24 -187 40 -242 26 -89 52 -150 39 -92 -12 59 -35 223 -35 256 0 26 3 32
16 27 9 -3 17 -6 19 -6 2 0 13 -20 24 -44 25 -58 54 -86 90 -86 26 0 32 -6 47
-45 9 -25 19 -43 21 -41 3 2 -4 25 -16 50 -17 39 -24 46 -49 46 -16 0 -36 8
-44 18 -21 23 -41 63 -35 68 7 8 130 -50 143 -67 6 -8 19 -36 29 -63 10 -28
44 -78 79 -118 33 -38 74 -85 90 -103 16 -19 41 -69 57 -112 15 -43 28 -73 28
-67 1 15 -34 115 -53 152 -9 18 -48 67 -86 109 -68 76 -115 152 -108 174 3 10
67 -53 137 -136 40 -48 33 -33 -30 61 -60 90 -125 148 -227 203 -91 49 -103
67 -122 188 -27 170 -91 222 -370 303 -159 46 -293 97 -285 110 3 4 25 11 50
14 34 6 59 2 100 -13 30 -11 157 -39 282 -62 125 -22 257 -50 293 -61 153 -47
256 -121 305 -219 33 -64 100 -329 109 -426 3 -39 13 -104 21 -143 8 -39 15
-96 15 -126 0 -62 31 -133 75 -174 43 -40 97 -125 164 -257 34 -68 63 -123 66
-123 6 0 -79 183 -116 248 -32 57 -31 61 9 34 15 -10 65 -39 112 -65 67 -36
91 -55 111 -89 49 -80 61 -111 80 -207 10 -53 17 -76 15 -51 l-4 45 26 -34
c39 -50 193 -234 205 -246 19 -17 -4 14 -111 147 -56 71 -105 140 -108 154 -5
19 1 42 22 80 16 30 32 54 36 54 13 0 146 -105 168 -133 19 -23 22 -37 18 -79
-7 -72 6 -111 56 -161 24 -24 63 -81 87 -127 31 -57 72 -112 137 -180 l93 -99
-3 -143 -3 -144 28 -33 c15 -18 27 -28 27 -23 0 5 -9 17 -19 26 -17 16 -35 96
-21 96 3 0 13 -12 23 -27 18 -30 106 -128 92 -103 -5 8 -27 38 -50 65 -66 78
-68 85 -60 195 l7 98 -57 56 c-32 31 -55 56 -52 56 2 0 23 -7 46 -15 22 -8 69
-19 104 -25 34 -7 69 -18 78 -26 24 -22 67 -122 99 -233 36 -122 39 -80 4 54
-3 13 12 2 43 -30 49 -52 33 -27 -23 35 -17 19 -37 53 -44 75 -32 101 -62 137
-130 155 -25 6 -67 18 -93 27 l-49 15 29 17 c15 10 34 25 41 34 13 15 17 14
52 -14 31 -25 46 -30 81 -28 26 1 57 -4 76 -14 18 -9 37 -17 43 -17 6 0 26
-11 43 -24 51 -37 65 -41 27 -8 -19 18 -52 36 -72 42 -21 6 -44 20 -53 32 -11
17 -17 20 -27 10 -26 -26 -102 -4 -132 40 l-16 22 -27 -26 c-39 -38 -79 -51
-106 -36 -32 17 -43 33 -91 133 -24 50 -56 101 -71 115 -32 30 -55 71 -55 100
0 31 15 24 28 -14 14 -39 88 -82 239 -140 49 -19 121 -50 160 -69 43 -22 74
-32 83 -27 9 6 6 10 -11 16 -13 4 -27 7 -31 6 -5 -1 -38 13 -75 32 -38 19
-119 55 -180 81 -137 57 -165 81 -188 160 -9 33 -25 76 -36 96 l-18 37 57 -18
c31 -9 145 -45 252 -79 128 -41 212 -62 245 -63 28 0 111 16 185 36 154 41
183 43 226 17 48 -29 59 -68 46 -159 -18 -118 -16 -134 26 -193 35 -51 37 -59
37 -129 0 -41 -4 -86 -8 -100 -7 -24 -7 -24 8 2 19 35 29 106 21 151 -4 19
-20 54 -36 78 -34 51 -37 84 -15 191 9 40 13 83 10 96 -3 12 -4 22 -2 22 2 0
39 -9 82 -20 42 -11 121 -22 174 -25 l96 -4 -104 14 c-137 18 -233 48 -275 85
-39 35 -94 60 -132 60 -14 0 -84 -13 -156 -30 -71 -16 -148 -30 -170 -30 -22
0 -133 30 -246 66 -114 36 -253 77 -309 90 -87 21 -115 33 -180 78 -43 30
-145 90 -227 135 -218 120 -266 156 -149 111 28 -10 118 -37 200 -59 81 -22
157 -43 168 -46 16 -6 17 -5 5 4 -8 6 -85 34 -170 61 -177 57 -280 103 -333
150 l-37 32 0 84 0 83 36 -24 c44 -30 80 -40 194 -55 64 -9 120 -26 225 -70
173 -71 206 -82 375 -120 l135 -31 53 -52 c65 -64 102 -117 112 -159 6 -25 8
-27 9 -10 1 33 -22 73 -85 147 -30 36 -52 65 -49 65 3 0 49 -7 103 -16 71 -12
131 -15 227 -10 155 7 161 5 310 -112 93 -73 298 -204 390 -250 75 -37 90 -33
20 5 -91 50 -319 214 -418 303 -114 100 -143 112 -277 111 -130 -2 -233 17
-495 91 -131 36 -220 69 -326 118 -175 81 -216 96 -312 111 -39 6 -84 17 -98
25 -61 31 -117 127 -144 244 -67 294 -85 343 -157 425 l-42 48 99 -7 c153 -11
169 -18 256 -103 73 -70 82 -76 160 -99 46 -13 92 -33 103 -44 19 -18 19 -20
2 -84 -10 -36 -15 -77 -12 -91 3 -13 33 -53 66 -88 50 -54 64 -78 91 -153 35
-100 59 -140 29 -48 -11 32 -24 78 -30 101 -6 25 -30 65 -60 100 -75 88 -77
93 -54 163 l19 60 67 -58 c37 -31 91 -88 119 -127 62 -85 64 -88 47 -50 -7 16
-25 43 -40 59 -15 16 -26 31 -25 32 1 1 58 -25 126 -59 101 -50 139 -76 205
-137 l81 -75 -73 81 c-59 67 -87 90 -155 125 -117 60 -170 96 -272 184 l-90
78 53 -7 c94 -12 316 -72 432 -117 88 -34 122 -52 160 -88 l48 -46 0 -86 c-1
-86 -1 -87 48 -165 52 -85 128 -189 146 -200 6 -4 -14 26 -45 67 -30 41 -74
112 -97 159 -35 72 -41 92 -37 130 7 60 -14 119 -55 153 l-33 27 55 -16 c30
-9 66 -21 80 -27 26 -13 60 -65 87 -137 42 -113 124 -177 261 -202 60 -11 62
-13 63 -42 2 -30 2 -31 6 -3 5 33 15 33 89 6 79 -30 127 -77 174 -173 22 -44
52 -94 66 -111 l25 -30 -25 40 c-13 22 -39 76 -57 119 -53 130 -110 173 -294
222 -55 14 -111 32 -125 40 -23 12 -21 13 26 7 66 -7 312 12 539 42 99 13 238
27 308 30 71 4 139 10 153 14 40 10 -341 1 -506 -14 -85 -7 -156 -12 -158 -10
-1 1 37 34 85 72 83 65 94 70 183 91 52 12 106 23 120 26 22 3 21 3 -5 4 -28
2 -125 -18 -170 -34 -11 -4 10 22 46 57 36 35 52 52 35 38 -17 -15 -98 -79
-179 -143 l-148 -116 -102 -2 c-137 -3 -216 1 -253 12 -44 15 -99 77 -118 136
-10 30 -31 64 -51 84 -19 19 -35 38 -35 42 0 4 19 8 43 8 23 0 94 13 158 29
126 32 256 47 479 56 152 7 358 30 369 41 3 4 -10 3 -29 -1 -19 -4 -186 -9
-370 -11 -278 -3 -351 -7 -428 -22 l-93 -19 41 42 c49 50 92 65 215 76 l90 7
-95 -3 c-52 -2 -106 -6 -120 -10 -23 -7 -21 -4 15 36 22 23 -7 -1 -64 -54
-116 -108 -129 -114 -244 -102 -109 10 -192 30 -428 100 -118 36 -261 74 -317
85 -137 26 -174 44 -264 133 -105 103 -136 111 -531 137 -92 6 -190 18 -236
30 -42 11 -145 31 -227 45 -154 27 -174 36 -174 79 1 50 53 86 181 126 116 36
200 50 301 50 142 0 229 -30 353 -121 39 -28 86 -59 106 -69 55 -28 188 -60
344 -80 78 -11 150 -22 161 -26 41 -15 114 -70 125 -97 6 -15 14 -26 16 -23 3
2 0 13 -6 24 -10 19 -5 18 72 -10 45 -17 98 -35 117 -40 33 -10 86 -56 124
-108 17 -25 17 -25 0 5 -9 17 -28 42 -42 58 l-26 27 30 1 c19 0 4 7 -41 18
-141 36 -335 125 -335 154 0 6 24 7 68 1 37 -4 112 -9 167 -9 66 -1 157 -12
265 -33 91 -17 210 -35 265 -40 80 -8 119 -17 190 -47 110 -46 156 -48 245
-11 52 21 88 28 175 33 121 6 141 1 217 -59 20 -15 62 -40 93 -54 60 -28 84
-28 221 -8 l41 6 19 -86 c10 -48 20 -82 22 -76 2 6 -4 42 -13 81 -10 38 -16
72 -13 74 8 9 91 -41 108 -65 10 -14 41 -70 69 -125 58 -110 59 -94 4 28 -20
42 -34 80 -31 83 4 3 20 -2 38 -11 18 -9 34 -15 36 -12 2 2 -15 12 -38 23 -24
10 -59 34 -79 51 -62 56 -97 65 -219 58 -118 -8 -131 -5 -223 63 l-49 35 219
79 c120 44 254 90 298 103 44 13 73 24 65 24 -19 1 -222 -53 -425 -114 l-160
-48 -159 2 c-133 2 -168 -1 -220 -18 -106 -34 -105 -34 -206 14 -52 25 -102
45 -110 46 -8 0 10 9 40 20 110 39 191 71 187 75 -2 2 -32 -8 -68 -22 -126
-49 -188 -62 -259 -53 -120 16 -204 32 -239 43 l-33 12 78 36 c150 68 217 78
417 59 53 -4 133 -1 245 11 295 31 356 53 535 187 53 40 97 75 97 78 0 6 -13
-2 -100 -63 -94 -65 -183 -110 -256 -129 -31 -8 -146 -20 -256 -26 -177 -10
-214 -10 -324 6 -160 22 -210 14 -409 -66 l-150 -61 -85 12 c-47 6 -161 16
-255 21 -205 10 -327 30 -468 75 -26 9 -87 45 -135 81 -166 124 -260 157 -447
157 -79 -1 -160 -8 -237 -22 -130 -24 -151 -26 -129 -13 7 5 10 14 7 20 -4 6
-2 11 4 11 6 0 8 5 5 10 -3 6 -1 10 5 10 7 0 10 7 7 15 -4 8 -2 17 4 20 5 4 7
10 4 15 -3 5 -1 12 5 15 6 4 8 15 5 26 -4 10 -2 19 4 19 6 0 8 12 5 30 -4 20
-2 30 5 30 8 0 10 11 5 35 -3 19 -2 41 3 48 6 7 7 39 2 82 -4 39 -6 77 -3 87
3 9 0 19 -6 23 -6 4 -8 16 -5 26 4 11 1 26 -5 34 -7 8 -9 15 -5 15 4 0 2 7 -5
15 -7 9 -10 18 -7 22 4 3 2 12 -4 20 -14 16 -28 15 166 13 281 -2 426 24 648
116 174 73 232 82 384 63 65 -7 195 -14 288 -15 159 0 180 -3 325 -37 198 -46
318 -67 389 -67 43 0 81 -10 166 -45 141 -58 157 -60 235 -37 36 11 88 23 115
26 28 3 71 13 96 23 45 16 50 15 154 -11 59 -15 121 -34 137 -42 16 -8 33 -12
38 -9 5 3 35 -2 65 -11 31 -9 59 -14 62 -11 4 5 -159 59 -306 102 l-63 19 22
18 c22 18 23 17 42 -7 23 -30 74 -41 125 -27 34 9 32 10 -20 5 -55 -6 -58 -5
-90 29 l-32 34 -34 -23 c-18 -12 -38 -20 -44 -16 -20 12 -79 3 -207 -32 -72
-20 -135 -35 -141 -33 -6 2 22 29 62 59 103 78 117 86 179 103 30 8 45 15 33
15 -39 1 -131 -39 -184 -80 -27 -22 -66 -51 -85 -64 l-34 -23 -113 50 c-101
46 -122 51 -216 59 -94 7 -122 13 -110 22 2 2 63 26 134 53 l130 49 420 0 420
0 56 27 c51 25 136 93 244 192 l40 38 -45 -32 c-25 -17 -76 -56 -115 -86 -129
-100 -183 -114 -383 -99 -69 5 -91 10 -77 16 13 6 0 8 -40 5 -65 -6 -305 13
-305 23 0 9 57 43 95 58 16 6 47 12 68 12 20 1 37 5 37 9 0 5 -21 5 -47 1 -27
-4 -53 -8 -59 -8 -7 -1 -35 -17 -64 -36 -51 -34 -56 -35 -159 -39 -94 -3 -123
-8 -250 -49 -153 -50 -224 -64 -267 -53 -24 6 -25 9 -12 24 8 9 18 24 23 32 4
8 -5 0 -21 -18 l-29 -34 -78 26 c-71 25 -89 26 -235 25 -156 -1 -248 6 -257
21 -6 9 76 24 215 40 127 15 185 43 279 137 l74 74 151 -30 c83 -16 183 -32
221 -36 39 -3 93 -8 120 -12 84 -9 43 7 -53 22 -50 7 -117 19 -149 27 l-58 13
60 6 c59 6 58 6 -25 7 -115 3 -130 15 -43 36 38 9 75 22 83 27 12 9 12 10 -3
5 -98 -32 -177 -45 -225 -37 -29 4 -55 10 -57 13 -14 13 89 145 188 242 99 96
104 103 47 60 -35 -27 -104 -88 -152 -136 -48 -48 -88 -82 -89 -75 0 6 -7 -8
-14 -33 l-14 -45 -198 0 c-159 0 -212 -4 -269 -18 l-71 -18 -67 34 c-64 32
-69 33 -129 25 -84 -13 -229 -79 -362 -167 -140 -92 -193 -108 -385 -116 -150
-6 -394 -29 -473 -44 -39 -7 -49 -5 -74 15 -15 12 -26 24 -23 26 3 3 34 20 70
40 82 44 137 55 385 73 475 36 498 44 788 296 94 82 148 110 368 198 280 111
404 141 581 141 84 0 88 -1 135 -36 26 -20 71 -57 98 -83 104 -96 127 -112 45
-30 -47 47 -103 99 -125 117 l-40 33 75 -6 c86 -7 270 -57 318 -87 18 -11 44
-35 59 -54 31 -41 87 -75 163 -99 66 -21 78 -31 138 -112 25 -35 47 -61 49
-59 3 2 -16 31 -41 64 -25 33 -46 63 -46 66 0 10 82 -34 114 -61 33 -27 128
-77 166 -87 18 -4 15 -1 -7 9 -46 21 -41 24 15 10 54 -14 202 -26 181 -15 -8
4 -45 11 -84 15 -91 9 -144 30 -253 99 -49 31 -127 72 -173 90 -118 46 -138
58 -194 115 -57 59 -54 61 75 32 47 -11 119 -26 160 -34 41 -8 95 -22 120 -32
30 -11 58 -15 86 -10 37 5 45 3 72 -25 17 -16 36 -30 42 -30 6 0 -2 12 -19 26
-17 14 -31 31 -31 38 0 7 43 18 113 29 109 17 192 35 185 41 -1 2 -43 -3 -93
-10 -114 -16 -281 -17 -365 -1 l-65 13 45 33 c25 18 59 39 75 47 32 14 227 85
285 103 34 10 33 10 -13 5 -26 -3 -79 -16 -119 -30 -39 -13 -77 -24 -85 -24
-7 0 22 30 65 67 141 121 135 125 -13 8 -106 -84 -273 -195 -294 -195 -12 0
-346 83 -391 97 -13 4 -13 6 2 14 24 14 126 37 188 44 66 7 141 22 120 24 -8
1 7 11 34 22 55 22 92 49 115 82 9 12 -4 5 -29 -17 -58 -50 -151 -84 -271
-101 -52 -8 -121 -24 -154 -36 l-58 -22 -116 19 c-84 14 -167 19 -301 19 -209
0 -259 -8 -465 -75 -70 -23 -129 -39 -132 -37 -14 14 85 167 125 193 23 15
240 94 457 166 50 16 129 38 177 49 l88 19 74 -55 c41 -30 80 -55 86 -55 6 0
28 -9 49 -20 22 -11 59 -22 83 -25 l43 -5 -39 10 c-78 20 -273 136 -256 153 3
3 79 10 170 16 183 11 236 23 355 83 112 57 168 74 282 89 113 14 167 30 78
23 -174 -14 -229 -24 -313 -59 -181 -76 -188 -77 -427 -85 -127 -5 -253 -15
-299 -24 -44 -9 -81 -14 -83 -12 -5 5 154 100 242 144 44 22 125 57 180 78 96
37 106 38 255 44 139 5 166 9 258 39 57 18 102 35 100 36 -2 2 -55 -9 -118
-25 -108 -27 -124 -29 -250 -24 -128 6 -140 5 -219 -21 -47 -15 -89 -29 -96
-31 -9 -4 -12 53 -6 148 1 10 16 34 34 54 26 31 28 35 9 25 -38 -20 -62 -70
-62 -129 0 -90 -16 -110 -129 -165 -55 -26 -160 -88 -235 -137 -123 -82 -147
-94 -276 -135 -77 -25 -146 -45 -154 -45 -7 0 -40 -14 -73 -30 -77 -39 -123
-93 -188 -224 -55 -110 -39 -95 -212 -194 -32 -18 -110 -76 -173 -128 -63 -52
-138 -106 -165 -120 -71 -34 -176 -52 -387 -64 -228 -13 -338 -25 -450 -50
-48 -11 -114 -20 -145 -19 -69 1 -145 19 -151 36 -5 16 79 69 121 77 18 3 91
10 162 15 79 6 158 19 199 32 64 19 85 20 260 16 195 -6 175 3 -49 20 l-100 8
105 57 c124 66 179 83 320 98 58 6 125 16 150 22 46 11 120 44 120 53 0 3 -13
-1 -29 -9 -45 -24 -105 -34 -257 -45 -158 -11 -220 -29 -383 -111 -128 -64
-147 -69 -354 -84 -152 -12 -184 -17 -227 -38 -28 -14 -50 -22 -50 -18 0 4 17
23 38 41 66 60 272 153 522 237 310 104 289 93 565 303 33 26 74 53 91 62 42
22 205 32 275 18 38 -8 67 -9 94 -1 l40 10 -42 -5 c-28 -4 -43 -1 -43 6 0 8
-38 10 -130 7 -71 -2 -124 0 -117 4 7 4 53 24 102 43 167 64 339 103 510 114
l110 8 -125 1 c-127 2 -270 -15 -381 -43 -34 -9 -63 -14 -66 -11 -8 8 66 37
172 66 55 15 116 34 136 42 42 18 101 68 131 112 12 17 0 8 -28 -21 -27 -29
-70 -61 -96 -72 -49 -22 -230 -72 -237 -66 -6 7 64 45 104 56 22 6 46 13 53
15 8 2 11 24 10 71 l-2 68 -3 -63 c-3 -38 -9 -64 -16 -66 -63 -18 -116 -45
-153 -77 -25 -21 -49 -39 -54 -39 -5 0 -21 -10 -37 -23 -15 -13 -57 -34 -93
-46 -107 -38 -198 -89 -321 -177 -119 -85 -225 -144 -291 -162 -21 -6 -38 -9
-38 -7 0 2 17 14 38 26 76 46 260 190 348 272 50 47 131 132 179 189 49 57
121 137 160 178 38 42 87 96 107 121 84 105 146 124 418 133 128 5 188 11 268
31 57 14 127 25 156 25 49 0 57 -4 119 -55 41 -34 67 -63 67 -75 0 -14 6 -20
23 -19 16 1 18 2 5 6 -10 2 -18 10 -18 17 0 13 -70 83 -110 110 -23 15 -13 16
190 16 118 0 249 5 290 10 86 11 282 51 277 56 -2 2 -48 -3 -103 -11 -159 -24
-317 -29 -492 -15 -89 7 -159 17 -156 21 3 5 14 9 26 9 45 0 267 63 333 95 58
28 90 54 184 152 126 130 122 133 -9 7 -104 -98 -149 -125 -262 -158 -93 -27
-361 -71 -497 -82 -75 -6 -83 -5 -75 9 20 36 140 128 193 148 61 23 225 53
252 46 9 -3 23 0 30 5 22 15 -135 3 -218 -16 -39 -10 -96 -32 -127 -51 -31
-18 -56 -31 -56 -29 0 8 51 76 84 112 37 40 76 62 109 62 14 0 42 7 63 16 30
13 60 15 129 12 50 -3 79 -2 65 2 -14 5 -44 8 -67 9 -24 1 -43 4 -43 9 0 4 39
27 87 52 63 33 109 66 167 124 76 74 73 80 -4 10 -40 -37 -142 -105 -148 -100
-2 2 7 24 20 48 20 38 23 57 23 158 l0 115 -47 80 c-59 97 -61 90 -8 -17 35
-72 40 -89 40 -153 0 -39 -7 -96 -17 -126 l-16 -54 -13 62 c-7 34 -28 92 -45
130 -18 37 -38 82 -45 98 -7 17 -13 24 -13 16 -1 -7 18 -54 40 -105 45 -98 60
-186 40 -224 -25 -47 -108 -100 -183 -117 -99 -22 -148 -53 -205 -130 -62 -85
-64 -74 -29 191 2 16 1 23 -1 17 -2 -7 -8 -13 -12 -13 -5 0 -12 -46 -15 -102
-16 -219 -11 -198 -63 -245 -62 -55 -92 -65 -313 -109 -125 -24 -198 -44 -227
-60 -23 -13 -46 -24 -51 -24 -12 0 -24 85 -16 116 5 18 23 32 68 53 71 32 122
79 174 160 20 31 56 83 80 116 88 119 128 223 141 364 7 78 15 105 49 175 23
45 76 132 118 192 143 203 164 235 164 251 0 14 -2 14 -17 1 -10 -8 -44 -25
-76 -38 -68 -27 -70 -38 -2 -15 26 9 48 15 50 13 2 -2 -35 -50 -82 -108 -186
-230 -245 -334 -263 -460 -10 -76 -36 -166 -49 -174 -3 -3 -7 19 -7 47 -2 84
-28 159 -74 206 -38 39 -40 44 -40 102 0 59 -1 61 -50 108 -85 81 -117 186
-85 281 20 61 106 155 173 189 24 12 42 25 39 27 -8 8 -67 -24 -124 -68 -103
-79 -148 -185 -121 -290 18 -68 10 -67 -64 9 -62 64 -125 211 -152 353 -3 14
-3 -2 0 -35 3 -34 19 -95 38 -142 18 -46 27 -78 20 -72 -24 20 -185 237 -303
407 -62 89 -115 162 -118 162 -3 0 2 -12 12 -26 9 -14 64 -103 122 -197 58
-95 125 -200 149 -235 24 -35 44 -65 44 -67 0 -2 -15 -6 -32 -8 l-33 -4 36 -1
c33 -2 44 -11 111 -90 41 -48 103 -112 138 -142 138 -120 140 -122 140 -179 0
-59 10 -82 51 -126 39 -41 59 -105 59 -184 0 -102 -22 -170 -81 -251 -29 -39
-53 -69 -55 -67 -2 2 1 20 7 41 6 21 9 40 6 42 -2 2 -12 -25 -22 -62 -19 -72
-46 -98 -135 -129 -24 -9 -54 -25 -66 -36 -30 -28 -48 -108 -40 -176 l6 -55
-32 20 c-18 11 -62 28 -98 37 -101 25 -119 35 -162 89 -52 66 -70 75 -143 76
-89 0 -125 34 -96 88 13 23 53 248 49 270 -2 9 -10 -12 -17 -48 -7 -36 -15
-69 -18 -73 -7 -11 -29 33 -39 75 -4 18 -9 27 -11 20 -4 -10 -8 -10 -21 0 -9
7 -5 -2 8 -19 34 -48 51 -137 33 -187 -17 -49 -17 -107 0 -130 10 -14 34 -20
92 -26 85 -8 79 -5 148 -94 31 -40 80 -67 169 -91 57 -15 118 -56 118 -79 0
-6 -21 -32 -46 -56 -25 -25 -102 -106 -170 -181 -119 -132 -280 -281 -414
-385 -80 -63 -190 -137 -190 -129 0 3 13 23 30 43 16 20 41 68 55 106 28 74
112 212 122 202 11 -10 41 79 48 144 5 41 4 60 -4 60 -7 0 -11 24 -11 63 0 44
-3 58 -10 47 -16 -24 -12 -111 5 -124 26 -19 -6 -124 -66 -214 l-51 -77 7 68
c4 38 8 103 8 145 1 88 -18 134 -97 236 -28 36 -53 81 -62 115 -25 84 -49 126
-92 157 -71 52 -182 179 -182 208 0 26 41 61 204 174 51 35 81 89 72 128 -9
33 15 85 52 116 17 14 84 55 148 89 81 44 137 83 183 127 l66 63 -71 -55 c-39
-31 -120 -79 -180 -108 -60 -28 -126 -62 -146 -75 -42 -26 -42 -26 -28 32 8
35 6 43 -14 65 -36 38 -46 63 -56 142 l-9 73 4 -77 c3 -78 13 -107 47 -145 18
-19 19 -27 9 -73 -6 -28 -18 -65 -27 -81 -8 -17 -17 -55 -19 -85 -3 -31 -7
-60 -11 -65 -3 -6 -45 -35 -92 -66 -48 -30 -103 -68 -123 -84 -20 -16 -40 -29
-43 -29 -13 0 27 65 68 109 23 25 52 62 64 82 24 39 52 139 51 179 0 14 -6 -2
-14 -35 -7 -33 -21 -78 -31 -100 l-19 -40 -5 165 -6 165 -2 -176 -2 -175 -46
-54 c-25 -29 -54 -71 -66 -93 -20 -39 -21 -40 -35 -21 -9 10 -27 43 -40 72
-34 73 -28 118 34 241 l49 98 -8 104 c-15 208 -14 232 15 281 42 72 195 211
278 252 39 20 82 36 95 36 12 0 51 -19 86 -43 76 -52 102 -66 68 -38 -46 38
-114 82 -139 88 -22 6 -54 -3 -126 -32 -18 -8 -18 -7 -7 8 8 9 36 23 64 33 42
14 57 14 90 5 22 -7 42 -10 44 -8 9 9 -87 29 -111 23 -29 -8 -30 -5 -9 36 20
38 14 101 -13 130 -10 11 -36 31 -59 44 -47 28 -69 66 -54 94 5 10 91 59 190
108 219 111 326 179 308 197 -9 9 -38 -7 -38 -20 0 -18 -294 -165 -339 -169
-23 -3 -130 -56 -139 -70 -4 -6 -10 23 -13 64 l-5 75 -3 -85 c-1 -47 -7 -98
-14 -114 l-13 -29 -44 50 c-25 28 -89 124 -143 215 -54 90 -109 177 -123 193
-27 32 -24 22 11 -35 12 -19 59 -105 104 -190 46 -85 94 -170 107 -187 14 -18
69 -69 124 -113 98 -79 119 -106 103 -134 -17 -29 -293 -276 -293 -262 0 8 4
26 10 41 20 54 30 152 20 206 -8 46 -148 344 -157 335 -2 -2 29 -69 68 -149
63 -129 71 -153 76 -220 7 -86 -5 -104 -36 -54 -11 18 -30 42 -42 53 -21 19
-69 105 -69 124 0 15 -62 151 -67 146 -2 -2 4 -21 15 -43 11 -21 29 -69 42
-106 12 -37 37 -87 56 -110 18 -23 45 -62 60 -86 l27 -43 -18 -77 c-10 -42
-26 -94 -36 -116 -10 -22 -20 -49 -24 -60 -5 -17 -8 -16 -26 10 -29 43 -90
165 -134 268 -21 48 -41 89 -45 92 -15 9 99 -276 153 -380 50 -97 57 -119 63
-187 7 -83 -1 -97 -30 -53 -11 17 -26 25 -44 25 -36 0 -52 13 -91 79 -27 44
-120 173 -139 191 -14 14 27 -53 68 -110 80 -110 86 -133 32 -111 -42 18 -82
64 -140 161 -114 192 -165 341 -166 489 -1 69 -3 78 -10 51 -9 -31 3 -166 20
-230 13 -50 -15 -6 -44 70 -39 99 -46 152 -28 220 12 47 12 58 0 82 -8 15 -17
28 -20 28 -2 0 2 -13 10 -28 13 -25 13 -34 -1 -73 -10 -30 -13 -63 -10 -105 7
-76 68 -311 103 -400 53 -131 170 -253 308 -320 39 -19 82 -46 96 -59 14 -14
32 -25 39 -25 19 0 7 -72 -31 -188 -37 -114 -35 -157 16 -254 20 -38 36 -71
36 -73 0 -1 -26 -6 -58 -10 -109 -12 -160 27 -199 155 -30 98 -46 134 -79 173
-32 39 -30 27 6 -29 16 -26 34 -72 41 -103 26 -129 67 -195 134 -221 19 -8 57
-9 106 -5 l76 6 30 -38 c16 -21 44 -61 61 -89 20 -32 56 -68 92 -93 69 -48 72
-53 94 -141 9 -36 30 -87 47 -114 16 -27 28 -50 27 -51 -2 -1 -40 -6 -85 -9
l-82 -7 -25 39 c-33 52 -101 110 -145 122 -20 5 -65 10 -101 10 -80 1 -126 20
-200 86 -35 32 -46 39 -32 20 64 -83 141 -127 232 -133 36 -2 76 -6 88 -9 29
-6 121 -90 133 -121 4 -12 20 -30 34 -39 23 -15 35 -16 96 -7 132 21 168 -12
154 -140 -9 -88 -26 -177 -34 -177 -4 0 -13 6 -21 13 -8 6 -6 2 4 -10 18 -21
18 -23 0 -70 -12 -30 -44 -74 -88 -121 -89 -93 -115 -109 -81 -50 14 24 25 57
25 73 0 41 -42 179 -50 165 -9 -14 -44 32 -94 123 -21 37 -40 67 -43 67 -7 0
76 -150 104 -187 33 -43 63 -125 63 -171 0 -83 -110 -198 -290 -305 -62 -37
-115 -65 -117 -63 -2 2 -5 46 -6 97 -1 52 -3 82 -5 67 -3 -29 -22 -40 -22 -13
0 8 -18 68 -40 134 -45 135 -50 194 -25 324 22 115 17 125 -12 22 -33 -121
-35 -234 -5 -331 28 -89 28 -98 2 -84 -10 6 -69 14 -130 19 -100 8 -120 13
-197 50 -47 23 -88 41 -91 41 -12 0 98 -71 150 -97 30 -15 88 -31 142 -39 54
-8 101 -21 116 -32 40 -30 62 -80 55 -130 -10 -70 -30 -103 -116 -192 l-82
-85 -96 0 c-91 0 -100 2 -174 38 -46 23 -90 53 -109 75 -66 77 -197 199 -266
247 -51 36 -75 60 -86 88 -26 62 -21 81 32 123 26 21 74 63 108 95 42 40 74
61 105 69 260 68 329 112 329 212 0 27 7 74 16 104 8 30 14 60 12 66 -2 6 -10
-15 -17 -47 -15 -66 -18 -64 -51 34 -19 56 -20 69 -9 120 6 31 28 90 49 131
40 78 70 148 70 159 -1 11 -102 -194 -120 -244 l-19 -50 0 65 c-2 99 -19 189
-48 242 l-26 48 20 83 c12 45 24 91 28 102 3 11 -3 4 -14 -15 -11 -19 -28 -67
-37 -106 l-17 -71 24 -49 c21 -43 24 -65 26 -172 l2 -123 -33 43 c-46 61 -96
135 -96 143 0 3 6 3 13 -1 6 -4 -9 17 -34 47 -25 30 -54 66 -63 81 -18 27 -18
28 9 40 28 12 66 74 64 105 0 11 -5 7 -12 -12 -21 -54 -36 -72 -67 -85 -27
-11 -32 -11 -45 6 -36 49 -47 118 -56 334 -4 118 -13 229 -18 245 -9 24 -10
16 -5 -38 3 -38 3 -132 -1 -210 -7 -121 -10 -138 -21 -122 -17 22 -35 72 -69
189 -15 48 -28 86 -30 84 -8 -8 64 -237 92 -293 17 -33 33 -80 37 -103 9 -57
35 -108 113 -216 35 -49 61 -91 59 -94 -3 -2 -22 9 -43 25 -21 17 -86 62 -144
101 -86 57 -109 78 -122 109 -11 25 -16 31 -16 18 -1 -22 23 -62 49 -82 8 -7
62 -45 120 -85 171 -117 278 -231 324 -344 l16 -39 -37 45 c-21 25 -66 74
-102 110 -42 42 -49 48 -20 15 76 -86 117 -139 153 -200 41 -68 43 -75 17 -75
-10 0 -48 -11 -85 -25 -64 -24 -66 -24 -76 -5 -5 10 -10 25 -10 32 0 15 -57
138 -64 138 -3 0 8 -27 24 -61 16 -34 32 -79 35 -100 4 -21 12 -39 18 -39 7 0
43 11 81 24 75 27 99 25 94 -8 -4 -31 -84 -70 -197 -96 -147 -34 -158 -38
-220 -96 -32 -29 -100 -87 -152 -128 -106 -84 -100 -84 -160 -2 -38 52 -40
117 -4 170 14 20 25 41 25 47 0 25 120 185 151 202 19 10 44 32 56 50 24 34
65 145 60 160 -1 5 -13 -23 -25 -62 -17 -51 -35 -84 -63 -113 -21 -23 -41 -39
-44 -36 -3 3 9 36 27 74 26 55 33 85 36 146 6 116 -18 160 -172 317 -140 143
-155 164 -133 189 48 55 74 159 80 327 3 80 1 113 -4 85 -4 -25 -8 -75 -8
-111 -1 -107 -60 -299 -92 -299 -15 0 -38 62 -43 112 -2 32 8 73 42 163 29 80
45 140 48 180 l3 60 -9 -57 c-9 -57 -65 -215 -82 -233 -6 -6 -8 10 -4 45 4 30
11 114 16 187 11 151 29 212 92 315 24 38 55 91 71 118 32 56 36 58 217 95
203 42 325 47 353 14 l17 -21 20 23 c68 79 91 166 95 359 4 151 3 152 -5 50
-15 -165 -30 -236 -63 -303 -25 -49 -36 -61 -52 -58 -82 14 -210 11 -317 -8
-64 -11 -124 -24 -134 -28 -29 -11 136 171 267 294 24 23 52 56 62 75 15 28
16 30 1 8 -10 -14 -42 -47 -73 -75 -30 -27 -84 -81 -120 -120 -108 -114 -180
-185 -189 -185 -9 0 135 437 162 488 9 17 14 32 11 32 -10 0 -53 -99 -85 -195
-18 -55 -35 -103 -39 -107 -9 -11 -3 178 10 291 6 52 23 146 39 210 27 111 45
211 38 211 -2 0 -16 -48 -32 -108z m859 -1077 l28 -50 -33 30 c-48 43 -105
136 -139 224 -54 140 -43 137 36 -9 43 -80 92 -167 108 -195z m-2066 -30 c1
-17 -1 -17 -9 -5 -5 8 -9 26 -9 40 0 23 1 23 9 5 5 -11 9 -29 9 -40z m2376
-185 c3 -5 1 -10 -4 -10 -6 0 -11 5 -11 10 0 6 2 10 4 10 3 0 8 -4 11 -10z
m1970 -769 c-3 -6 -14 -11 -23 -11 -15 1 -15 2 2 15 21 16 32 13 21 -4z
m-4715 -33 c0 -9 16 -46 35 -83 l36 -67 -58 32 c-90 51 -89 49 -56 108 27 48
42 52 43 10z m6068 -1159 c-17 -7 -38 -7 -60 0 -30 8 -28 9 27 9 50 0 56 -1
33 -9z m-1228 -398 c0 -16 -99 -99 -146 -122 -33 -16 -83 -25 -182 -35 -145
-15 -269 -37 -335 -60 -22 -8 -60 -14 -86 -13 l-46 0 65 32 c36 18 92 45 125
60 33 15 49 24 35 21 -14 -3 -86 -34 -160 -69 -181 -85 -427 -171 -542 -190
-100 -16 -425 -21 -488 -7 l-35 8 35 7 c65 12 194 27 355 41 216 20 262 37
433 163 97 72 224 139 291 154 49 10 57 9 111 -15 67 -30 99 -32 163 -10 26 9
82 22 125 29 90 15 282 19 282 6z m1005 -531 c-11 -5 -27 -9 -35 -9 -9 0 -8 4
5 9 11 5 27 9 35 9 9 0 8 -4 -5 -9z m-7386 -714 c-2 -1 -19 -8 -36 -14 -37
-12 -45 -6 -10 8 22 9 54 13 46 6z m2659 -102 c51 -4 92 -10 92 -14 0 -7 -239
-41 -427 -60 -164 -17 -213 -38 -385 -166 -108 -81 -235 -148 -297 -159 -32
-5 -55 -1 -108 20 l-67 27 -76 -21 c-116 -34 -226 -50 -335 -51 l-99 0 42 43
c75 77 136 106 243 118 143 15 257 36 355 64 48 15 104 25 123 23 34 -3 32 -5
-59 -49 -52 -25 -116 -54 -143 -64 -26 -10 -46 -20 -43 -22 6 -6 152 55 255
107 53 26 114 53 136 60 22 7 85 30 139 52 198 78 414 109 654 92z m-2848
-834 c18 -6 9 -8 -35 -8 -44 0 -53 2 -35 8 14 4 30 8 35 8 6 0 21 -4 35 -8z
m6090 -1002 c0 -5 -13 -32 -30 -61 -22 -38 -30 -46 -30 -30 0 12 -18 56 -39
98 l-39 75 69 -36 c38 -20 69 -41 69 -46z m-4756 -173 c-25 -19 -40 -19 -24 0
7 8 20 15 28 15 13 0 12 -3 -4 -15z m4355 -920 l0 -20 -9 20 c-5 11 -9 29 -9
40 l0 20 9 -20 c5 -11 9 -29 9 -40z m-2032 -57 c23 -29 52 -76 67 -105 29 -59
76 -180 76 -197 0 -6 -37 57 -83 139 -46 83 -96 169 -111 193 -39 62 -2 40 51
-30z" />
    <path d="M3151 8844 c0 -11 3 -14 6 -6 3 7 2 16 -1 19 -3 4 -6 -2 -5 -13z" />
    <path d="M4799 8556 c18 -6 52 -27 75 -46 l41 -34 -29 32 c-30 32 -83 63 -108
61 -7 0 2 -6 21 -13z" />
    <path d="M2170 8376 c0 -2 8 -10 18 -17 15 -13 16 -12 3 4 -13 16 -21 21 -21
13z" />
    <path d="M2225 8310 c47 -55 48 -56 37 -35 -6 11 -23 31 -39 45 l-28 25 30
-35z" />
    <path d="M3372 8225 c0 -16 2 -22 5 -12 2 9 2 23 0 30 -3 6 -5 -1 -5 -18z" />
    <path d="M6184 8177 c-26 -39 -54 -93 -54 -104 0 -4 6 1 12 12 46 86 61 106
68 96 5 -9 11 -7 21 5 9 12 10 15 2 10 -7 -4 -13 -2 -13 3 0 20 -15 11 -36
-22z" />
    <path d="M5856 8124 c-11 -7 -18 -16 -15 -18 2 -2 13 2 23 10 11 7 18 16 15
18 -2 2 -13 -2 -23 -10z" />
    <path d="M6840 7957 c8 -8 194 -76 198 -72 2 1 -32 16 -75 33 -87 33 -130 47
-123 39z" />
    <path d="M7691 7864 c0 -11 3 -14 6 -6 3 7 2 16 -1 19 -3 4 -6 -2 -5 -13z" />
    <path d="M7702 7820 c0 -14 2 -19 5 -12 2 6 2 18 0 25 -3 6 -5 1 -5 -13z" />
    <path d="M7751 7784 c0 -11 3 -14 6 -6 3 7 2 16 -1 19 -3 4 -6 -2 -5 -13z" />
    <path d="M3148 7777 c12 -7 20 -16 16 -19 -3 -4 4 -4 16 -1 21 5 20 7 -10 19
-40 17 -52 17 -22 1z" />
    <path d="M7712 7765 c0 -16 2 -22 5 -12 2 9 2 23 0 30 -3 6 -5 -1 -5 -18z" />
    <path d="M6371 7754 c0 -11 3 -14 6 -6 3 7 2 16 -1 19 -3 4 -6 -2 -5 -13z" />
    <path d="M3058 7743 c17 -2 47 -2 65 0 17 2 3 4 -33 4 -36 0 -50 -2 -32 -4z" />
    <path d="M7187 7699 c11 -13 23 -33 26 -44 4 -16 5 -14 6 6 1 19 -7 32 -26 44
l-28 18 22 -24z" />
    <path d="M8248 7633 c7 -3 16 -2 19 1 4 3 -2 6 -13 5 -11 0 -14 -3 -6 -6z" />
    <path d="M8288 7623 c7 -3 16 -2 19 1 4 3 -2 6 -13 5 -11 0 -14 -3 -6 -6z" />
    <path d="M4832 7545 c0 -16 2 -22 5 -12 2 9 2 23 0 30 -3 6 -5 -1 -5 -18z" />
    <path d="M3523 7493 c9 -2 25 -2 35 0 9 3 1 5 -18 5 -19 0 -27 -2 -17 -5z" />
    <path d="M3748 7493 c6 -2 18 -2 25 0 6 3 1 5 -13 5 -14 0 -19 -2 -12 -5z" />
    <path d="M3627 7483 c18 -2 50 -2 70 0 21 2 7 4 -32 4 -38 0 -55 -2 -38 -4z" />
    <path d="M3748 7458 c-13 -13 -17 -18 -8 -12 8 6 24 16 35 22 11 6 15 12 8 12
-7 0 -22 -10 -35 -22z" />
    <path d="M4842 7309 c-2 -27 6 -46 29 -75 18 -22 45 -66 60 -99 16 -33 29 -53
29 -45 -1 25 -35 92 -73 142 -20 25 -37 61 -40 80 l-4 33 -1 -36z" />
    <path d="M1990 7196 c0 -2 8 -10 18 -17 15 -13 16 -12 3 4 -13 16 -21 21 -21
13z" />
    <path d="M1983 7143 c15 -2 37 -2 50 0 12 2 0 4 -28 4 -27 0 -38 -2 -22 -4z" />
    <path d="M6332 7120 c0 -14 2 -19 5 -12 2 6 2 18 0 25 -3 6 -5 1 -5 -13z" />
    <path d="M1032 7100 c0 -14 2 -19 5 -12 2 6 2 18 0 25 -3 6 -5 1 -5 -13z" />
    <path d="M1440 7076 c0 -2 8 -10 18 -17 15 -13 16 -12 3 4 -13 16 -21 21 -21
13z" />
    <path d="M1041 7034 c1 -16 5 -40 9 -54 6 -17 7 -9 3 25 -6 56 -14 74 -12 29z" />
    <path d="M1520 6964 c27 -42 67 -88 88 -103 43 -32 72 -72 83 -116 l7 -30 1
33 c1 28 -9 43 -67 100 -37 37 -87 95 -110 130 -60 88 -62 77 -2 -14z" />
    <path d="M7299 6938 c-24 -29 -36 -47 -26 -39 20 16 81 91 74 91 -2 0 -24 -24
-48 -52z" />
    <path d="M1061 6934 c0 -11 3 -14 6 -6 3 7 2 16 -1 19 -3 4 -6 -2 -5 -13z" />
    <path d="M5492 6829 c-1 -49 4 -106 12 -135 8 -27 20 -98 27 -159 7 -60 14
-104 17 -97 6 20 -18 224 -31 246 -6 12 -14 68 -17 126 l-7 105 -1 -86z" />
    <path d="M1140 6836 c0 -3 9 -10 20 -16 11 -6 20 -8 20 -6 0 3 -9 10 -20 16
-11 6 -20 8 -20 6z" />
    <path d="M1398 6803 c7 -3 16 -2 19 1 4 3 -2 6 -13 5 -11 0 -14 -3 -6 -6z" />
    <path d="M6425 6768 l-40 -43 43 40 c39 36 47 45 39 45 -2 0 -21 -19 -42 -42z" />
    <path d="M1325 6778 c-22 -12 -56 -27 -75 -34 -21 -8 -27 -13 -15 -13 11 0 49
15 85 34 36 19 61 34 55 34 -5 0 -28 -9 -50 -21z" />
    <path d="M1220 6786 c0 -2 8 -10 18 -17 15 -13 16 -12 3 4 -13 16 -21 21 -21
13z" />
    <path d="M1178 6723 c6 -2 18 -2 25 0 6 3 1 5 -13 5 -14 0 -19 -2 -12 -5z" />
    <path d="M6359 6713 c-13 -16 -12 -17 4 -4 16 13 21 21 13 21 -2 0 -10 -8 -17
-17z" />
    <path d="M5871 6634 c0 -11 3 -14 6 -6 3 7 2 16 -1 19 -3 4 -6 -2 -5 -13z" />
    <path d="M8308 6643 c18 -2 45 -2 60 0 15 2 0 4 -33 4 -33 0 -45 -2 -27 -4z" />
    <path d="M2395 6531 c76 -78 200 -181 219 -181 5 0 -20 22 -56 49 -36 27 -105
87 -154 132 l-89 83 80 -83z" />
    <path d="M998 6343 c12 -2 32 -2 45 0 12 2 2 4 -23 4 -25 0 -35 -2 -22 -4z" />
    <path d="M5502 6280 c0 -14 2 -19 5 -12 2 6 2 18 0 25 -3 6 -5 1 -5 -13z" />
    <path d="M701 6224 c0 -11 3 -14 6 -6 3 7 2 16 -1 19 -3 4 -6 -2 -5 -13z" />
    <path d="M7862 5965 c-7 -14 -12 -31 -12 -38 1 -7 7 3 16 22 17 39 13 54 -4
16z" />
    <path d="M7205 5873 c-62 -43 -69 -50 -30 -30 29 15 95 67 85 66 -3 0 -27 -16
-55 -36z" />
    <path d="M2358 5843 c6 -2 18 -2 25 0 6 3 1 5 -13 5 -14 0 -19 -2 -12 -5z" />
    <path d="M8188 5743 c6 -2 18 -2 25 0 6 3 1 5 -13 5 -14 0 -19 -2 -12 -5z" />
    <path d="M1458 5633 c6 -2 18 -2 25 0 6 3 1 5 -13 5 -14 0 -19 -2 -12 -5z" />
    <path d="M1563 5623 c9 -2 25 -2 35 0 9 3 1 5 -18 5 -19 0 -27 -2 -17 -5z" />
    <path d="M1718 5613 c7 -3 16 -2 19 1 4 3 -2 6 -13 5 -11 0 -14 -3 -6 -6z" />
    <path d="M8004 5519 c-16 -17 -49 -44 -74 -60 -25 -16 -40 -29 -34 -29 15 0
82 50 118 89 17 17 27 31 25 31 -3 0 -18 -14 -35 -31z" />
    <path d="M8888 5503 c6 -2 18 -2 25 0 6 3 1 5 -13 5 -14 0 -19 -2 -12 -5z" />
    <path d="M8808 5373 c6 -2 18 -2 25 0 6 3 1 5 -13 5 -14 0 -19 -2 -12 -5z" />
    <path d="M945 4445 c-39 -17 -21 -18 25 0 19 7 28 14 20 14 -8 0 -28 -6 -45
-14z" />
    <path d="M1268 4323 c6 -2 18 -2 25 0 6 3 1 5 -13 5 -14 0 -19 -2 -12 -5z" />
    <path d="M2169 4261 c-24 -15 -57 -44 -74 -62 l-30 -34 35 32 c19 17 57 45 84
62 28 17 45 31 40 31 -6 0 -30 -13 -55 -29z" />
    <path d="M8458 4193 c18 -2 45 -2 60 0 15 2 0 4 -33 4 -33 0 -45 -2 -27 -4z" />
    <path d="M1158 4183 c7 -3 16 -2 19 1 4 3 -2 6 -13 5 -11 0 -14 -3 -6 -6z" />
    <path d="M8583 4183 c15 -2 39 -2 55 0 15 2 2 4 -28 4 -30 0 -43 -2 -27 -4z" />
    <path d="M2049 4143 c-13 -16 -12 -17 4 -4 9 7 17 15 17 17 0 8 -8 3 -21 -13z" />
    <path d="M1391 4044 c0 -11 3 -14 6 -6 3 7 2 16 -1 19 -3 4 -6 -2 -5 -13z" />
    <path d="M1893 3963 c9 -2 23 -2 30 0 6 3 -1 5 -18 5 -16 0 -22 -2 -12 -5z" />
    <path d="M1838 3953 c7 -3 16 -2 19 1 4 3 -2 6 -13 5 -11 0 -14 -3 -6 -6z" />
    <path d="M7743 3953 c9 -2 23 -2 30 0 6 3 -1 5 -18 5 -16 0 -22 -2 -12 -5z" />
    <path d="M7798 3943 c6 -2 18 -2 25 0 6 3 1 5 -13 5 -14 0 -19 -2 -12 -5z" />
    <path d="M8384 3848 l-19 -23 23 19 c12 11 22 21 22 23 0 8 -8 2 -26 -19z" />
    <path d="M808 3853 c7 -3 16 -2 19 1 4 3 -2 6 -13 5 -11 0 -14 -3 -6 -6z" />
    <path d="M9530 3790 c8 -5 20 -10 25 -10 6 0 3 5 -5 10 -8 5 -19 10 -25 10 -5
0 -3 -5 5 -10z" />
    <path d="M2769 3753 l-24 -28 28 24 c25 23 32 31 24 31 -2 0 -14 -12 -28 -27z" />
    <path d="M9311 3704 c0 -11 3 -14 6 -6 3 7 2 16 -1 19 -3 4 -6 -2 -5 -13z" />
    <path d="M9320 3673 c0 -5 15 -7 33 -5 33 4 34 3 52 -59 11 -34 20 -58 22 -53
2 6 -5 34 -15 64 -18 52 -21 55 -55 58 -21 2 -37 -1 -37 -5z" />
    <path d="M958 3633 c6 -2 18 -2 25 0 6 3 1 5 -13 5 -14 0 -19 -2 -12 -5z" />
    <path d="M9510 3605 c0 -5 5 -17 10 -25 5 -8 10 -10 10 -5 0 6 -5 17 -10 25
-5 8 -10 11 -10 5z" />
    <path d="M730 3470 c-9 -6 -10 -10 -3 -10 6 0 15 5 18 10 8 12 4 12 -15 0z" />
    <path d="M9093 3473 c15 -2 39 -2 55 0 15 2 2 4 -28 4 -30 0 -43 -2 -27 -4z" />
    <path d="M7500 3447 c3 -3 40 -32 82 -64 42 -32 114 -91 160 -132 l83 -73 -82
80 c-84 82 -178 159 -223 182 -14 7 -23 10 -20 7z" />
    <path d="M4591 3374 c0 -11 3 -14 6 -6 3 7 2 16 -1 19 -3 4 -6 -2 -5 -13z" />
    <path d="M7521 3354 c0 -11 3 -14 6 -6 3 7 2 16 -1 19 -3 4 -6 -2 -5 -13z" />
    <path d="M4575 3320 c-9 -15 13 -186 32 -245 9 -27 20 -95 23 -150 l7 -100 1
85 c1 47 -3 103 -9 125 -20 73 -40 189 -42 242 -2 57 -3 58 -12 43z" />
    <path d="M2963 3193 c9 -2 25 -2 35 0 9 3 1 5 -18 5 -19 0 -27 -2 -17 -5z" />
    <path d="M1790 3166 c0 -2 8 -10 18 -17 15 -13 16 -12 3 4 -13 16 -21 21 -21
13z" />
    <path d="M8918 3093 c6 -2 18 -2 25 0 6 3 1 5 -13 5 -14 0 -19 -2 -12 -5z" />
    <path d="M8845 3073 c-16 -9 -55 -27 -85 -40 -30 -12 -48 -23 -40 -23 8 0 53
18 100 40 47 22 78 40 70 39 -8 0 -28 -7 -45 -16z" />
    <path d="M8432 3020 c0 -58 1 -61 8 -26 4 22 4 51 0 65 -6 19 -8 7 -8 -39z" />
    <path d="M1702 3059 c-24 -6 -42 -13 -39 -15 2 -3 24 0 48 5 58 14 121 14 156
0 23 -8 26 -8 15 2 -16 17 -124 21 -180 8z" />
    <path d="M4262 3040 c0 -14 2 -19 5 -12 2 6 2 18 0 25 -3 6 -5 1 -5 -13z" />
    <path d="M3723 2996 c-36 -33 -70 -56 -88 -59 l-30 -4 30 -1 c24 -1 44 12 94
58 35 33 61 60 58 60 -3 0 -32 -24 -64 -54z" />
    <path d="M8897 3039 c12 -15 73 -53 73 -46 0 2 -19 17 -42 32 -24 16 -38 22
-31 14z" />
    <path d="M8450 3014 c0 -13 75 -84 88 -84 5 0 34 -38 66 -85 32 -47 62 -88 68
-91 25 -16 -116 174 -145 193 -17 13 -42 35 -54 50 -13 16 -23 23 -23 17z" />
    <path d="M4385 2950 c9 -16 18 -30 21 -30 2 0 -2 14 -11 30 -9 17 -18 30 -21
30 -2 0 2 -13 11 -30z" />
    <path d="M5026 2864 c-4 -20 -5 -38 -3 -40 3 -3 8 11 11 32 4 20 5 38 3 40 -3
3 -8 -11 -11 -32z" />
    <path d="M9061 2884 c0 -11 3 -14 6 -6 3 7 2 16 -1 19 -3 4 -6 -2 -5 -13z" />
    <path d="M9072 2845 c0 -11 4 -33 8 -50 7 -27 8 -27 8 -5 0 14 -4 36 -8 50 -6
20 -8 21 -8 5z" />
    <path d="M2848 2823 c-31 -35 -82 -103 -76 -103 2 0 28 29 56 65 55 68 64 85
20 38z" />
    <path d="M5011 2794 c0 -11 3 -14 6 -6 3 7 2 16 -1 19 -3 4 -6 -2 -5 -13z" />
    <path d="M7370 2746 c0 -2 7 -7 16 -10 8 -3 12 -2 9 4 -6 10 -25 14 -25 6z" />
    <path d="M9092 2725 c0 -16 2 -22 5 -12 2 9 2 23 0 30 -3 6 -5 -1 -5 -18z" />
    <path d="M5551 2724 c0 -11 3 -14 6 -6 3 7 2 16 -1 19 -3 4 -6 -2 -5 -13z" />
    <path d="M5541 2684 c0 -11 3 -14 6 -6 3 7 2 16 -1 19 -3 4 -6 -2 -5 -13z" />
    <path d="M5170 2672 c0 -20 50 -113 83 -154 28 -35 30 -41 24 -105 -3 -42 -2
-56 3 -38 18 71 12 113 -26 162 -21 27 -48 71 -60 98 -13 28 -24 44 -24 37z" />
    <path d="M3793 2620 c0 -30 2 -43 4 -27 2 15 2 39 0 55 -2 15 -4 2 -4 -28z" />
    <path d="M8028 2663 c28 -2 76 -2 105 0 28 2 5 3 -53 3 -58 0 -81 -1 -52 -3z" />
    <path d="M8213 2653 c9 -2 23 -2 30 0 6 3 -1 5 -18 5 -16 0 -22 -2 -12 -5z" />
    <path d="M8130 2615 c19 -19 36 -35 39 -35 3 0 -10 16 -29 35 -19 19 -36 35
-39 35 -3 0 10 -16 29 -35z" />
    <path d="M1938 2613 c7 -3 16 -2 19 1 4 3 -2 6 -13 5 -11 0 -14 -3 -6 -6z" />
    <path d="M5970 2616 c0 -2 8 -10 18 -17 15 -13 16 -12 3 4 -13 16 -21 21 -21
13z" />
    <path d="M2150 2535 c13 -14 26 -25 28 -25 3 0 -5 11 -18 25 -13 14 -26 25
-28 25 -3 0 5 -11 18 -25z" />
    <path d="M3352 2410 c0 -19 2 -27 5 -17 2 9 2 25 0 35 -3 9 -5 1 -5 -18z" />
    <path d="M5261 2324 c0 -11 3 -14 6 -6 3 7 2 16 -1 19 -3 4 -6 -2 -5 -13z" />
    <path d="M6380 2293 c-14 -3 -29 -9 -35 -15 -7 -8 -6 -8 5 -3 8 5 71 12 140
15 l125 7 -105 0 c-58 0 -116 -2 -130 -4z" />
    <path d="M7242 2280 c0 -14 2 -19 5 -12 2 6 2 18 0 25 -3 6 -5 1 -5 -13z" />
    <path d="M5662 2260 c0 -19 2 -27 5 -17 2 9 2 25 0 35 -3 9 -5 1 -5 -18z" />
    <path d="M6638 2283 c12 -2 32 -2 45 0 12 2 2 4 -23 4 -25 0 -35 -2 -22 -4z" />
    <path d="M3319 2223 l-34 -38 38 34 c20 19 37 36 37 38 0 8 -8 0 -41 -34z" />
    <path d="M3270 2160 c-6 -11 -8 -20 -6 -20 3 0 10 9 16 20 6 11 8 20 6 20 -3
0 -10 -9 -16 -20z" />
    <path d="M3391 2165 c1 -19 18 -51 18 -35 0 8 -4 22 -9 30 -5 8 -9 11 -9 5z" />
    <path d="M1908 2153 c7 -3 16 -2 19 1 4 3 -2 6 -13 5 -11 0 -14 -3 -6 -6z" />
    <path d="M1768 2093 c6 -2 18 -2 25 0 6 3 1 5 -13 5 -14 0 -19 -2 -12 -5z" />
    <path d="M7017 2043 c18 -2 50 -2 70 0 21 2 7 4 -32 4 -38 0 -55 -2 -38 -4z" />
    <path d="M8088 2043 c6 -2 18 -2 25 0 6 3 1 5 -13 5 -14 0 -19 -2 -12 -5z" />
    <path d="M6956 2033 c-17 -4 -14 -8 14 -19 18 -8 35 -12 37 -10 3 2 -5 7 -16
11 -12 3 -19 11 -16 16 4 5 5 8 3 8 -2 -1 -12 -4 -22 -6z" />
    <path d="M8060 2036 c0 -3 9 -10 20 -16 11 -6 20 -8 20 -6 0 3 -9 10 -20 16
-11 6 -20 8 -20 6z" />
    <path d="M8148 2033 c12 -2 32 -2 45 0 12 2 2 4 -23 4 -25 0 -35 -2 -22 -4z" />
    <path d="M3662 1930 c0 -14 2 -19 5 -12 2 6 2 18 0 25 -3 6 -5 1 -5 -13z" />
    <path d="M3110 1840 c8 -5 20 -10 25 -10 6 0 3 5 -5 10 -8 5 -19 10 -25 10 -5
0 -3 -5 5 -10z" />
    <path d="M2451 1824 c0 -11 3 -14 6 -6 3 7 2 16 -1 19 -3 4 -6 -2 -5 -13z" />
    <path d="M5650 1835 c0 -5 5 -17 10 -25 5 -8 10 -10 10 -5 0 6 -5 17 -10 25
-5 8 -10 11 -10 5z" />
    <path d="M3175 1816 c17 -7 41 -16 55 -20 20 -5 19 -3 -5 8 -16 7 -41 16 -55
20 -20 5 -19 3 5 -8z" />
    <path d="M6686 1712 c-36 -61 -66 -114 -66 -120 0 -5 -7 -23 -15 -38 -8 -16
-15 -47 -15 -69 0 -42 23 -119 32 -110 10 11 116 -115 123 -145 4 -17 9 -29
12 -26 14 13 -25 84 -76 139 -66 71 -75 97 -60 189 8 50 24 86 75 172 35 60
63 111 60 113 -2 2 -34 -45 -70 -105z" />
    <path d="M2461 1784 c0 -11 3 -14 6 -6 3 7 2 16 -1 19 -3 4 -6 -2 -5 -13z" />
    <path d="M3300 1770 c8 -5 20 -10 25 -10 6 0 3 5 -5 10 -8 5 -19 10 -25 10 -5
0 -3 -5 5 -10z" />
    <path d="M5853 1725 c0 -22 2 -30 4 -17 2 12 2 30 0 40 -3 9 -5 -1 -4 -23z" />
    <path d="M6411 1734 c0 -11 3 -14 6 -6 3 7 2 16 -1 19 -3 4 -6 -2 -5 -13z" />
    <path d="M3985 1622 c-39 -75 -39 -76 -28 -69 12 8 67 116 61 122 -2 2 -17
-21 -33 -53z" />
    <path d="M2072 1560 c0 -14 2 -19 5 -12 2 6 2 18 0 25 -3 6 -5 1 -5 -13z" />
    <path d="M3907 1539 c-15 -25 -27 -50 -27 -55 1 -5 10 9 22 31 18 34 22 37 28
21 4 -12 9 -16 13 -9 4 6 3 21 -1 34 -8 22 -10 20 -35 -22z" />
    <path d="M8131 1474 c0 -11 3 -14 6 -6 3 7 2 16 -1 19 -3 4 -6 -2 -5 -13z" />
    <path d="M4102 1380 c0 -14 2 -19 5 -12 2 6 2 18 0 25 -3 6 -5 1 -5 -13z" />
    <path d="M7901 1364 c0 -11 3 -14 6 -6 3 7 2 16 -1 19 -3 4 -6 -2 -5 -13z" />
    <path d="M7538 1253 c7 -3 16 -2 19 1 4 3 -2 6 -13 5 -11 0 -14 -3 -6 -6z" />
    <path d="M7578 1243 c7 -3 16 -2 19 1 4 3 -2 6 -13 5 -11 0 -14 -3 -6 -6z" />
    <path d="M3770 1186 c0 -2 7 -7 16 -10 8 -3 12 -2 9 4 -6 10 -25 14 -25 6z" />
    <path d="M6762 1170 c0 -14 2 -19 5 -12 2 6 2 18 0 25 -3 6 -5 1 -5 -13z" />
    <path d="M3368 1153 c7 -3 16 -2 19 1 4 3 -2 6 -13 5 -11 0 -14 -3 -6 -6z" />
    <path d="M6440 1126 c0 -2 8 -10 18 -17 15 -13 16 -12 3 4 -13 16 -21 21 -21
13z" />
    <path d="M7122 1040 c0 -14 2 -19 5 -12 2 6 2 18 0 25 -3 6 -5 1 -5 -13z" />
    <path d="M3262 940 c0 -19 2 -27 5 -17 2 9 2 25 0 35 -3 9 -5 1 -5 -18z" />
    <path d="M7002 940 c0 -14 2 -19 5 -12 2 6 2 18 0 25 -3 6 -5 1 -5 -13z" />
    <path d="M6061 904 c0 -11 3 -14 6 -6 3 7 2 16 -1 19 -3 4 -6 -2 -5 -13z" />
    <path d="M5365 789 c-4 -6 -5 -12 -2 -15 2 -3 7 2 10 11 7 17 1 20 -8 4z" />
  </g>
</svg>